<svg xmlns="http://www.w3.org/2000/svg" width="1144" height="1228" viewBox="0 0 1144 1228"><path fill="#0a0a17" d="m317.1 2.7 3.1.8q23.3 6.2 45 17a360 360 0 0 0 54 23.5c9.2 3 18.3 6.7 23.6 15.3 2.2 5.7 2.6 11.8 3.1 17.8a58 58 0 0 0 19-14l3-3 2-2 2-2c2 0 2 0 4 1l1.8 2.8c4.3 6.3 11 8 18.1 9.7A98 98 0 0 1 514 76l.8-2.5c3.3-9.6 3.3-9.6 6.2-12.5 2.3-.4 2.3-.4 5 0 2.2 1.9 2.2 1.9 4.4 4.3 4.6 4.8 8.1 7.8 15 8 4 0 7.3-1.2 11.1-2.7 3.1-.7 5.6-.4 8.7 0 3.1 0 3.1 0 5.8-.6 2-3 3-5.6 4-9.1 1.4-4.3 1.4-4.3 4-6 2.7-.6 2.7-.6 6 0q4.4 3.9 8 8.4c10.8 12 10.8 12 16 13.7l.5-4.2.4-2.3q0-3.9-.9-7.5-.2-3 0-5.7l-.2-3c.2-2.3.2-2.3 1.2-3.3 3-.5 5.1-.5 7.8 1l6 5 4.2 3.7 2.1 1.7 7.1 5.8 2 1.5q2.7 2 5.8 3.3l1-2.4c1-2.6 1-2.6 3-3.6 5.1-.5 8 .8 12.3 3.5l3.2 1.9C667 74 667 74 668 75l.5-2.5L670 70c4-.6 6.3-.3 10 1.6 4 1.8 5.8 1.4 10 .4 2.6-1.7 2.6-1.7 5-4l3-2.3 1.4-1.4 8.2-6.5q8-6.3 16-13 7-6 14.5-11.3a240 240 0 0 0 15.4-12.7l3.8-3.3C767.4 8.7 776.8.9 791 1.5q8.7 1 17.2 2.9 12.9 2.2 26 3A961 961 0 0 1 934 22l12 2q15.3 2.5 30.3 6.5l3.7 1a330 330 0 0 1 54.3 21.6q12 6 24.2 10.8c5 2 8.2 3.9 11.6 8v2l2 .9c2 1 2 1 3 4 1 7.2-2 10.7-6 16a160 160 0 0 0-18 30 32 32 0 0 1-5 8.6c-2.8 3.5-3.7 7.2-4.9 11.5 0 .4 0 .4-.8 2.7l-1.5 5.5-2.5 8.3c-2.7 9-5 17.7-6 27-.3 2.5-.3 2.5-1.3 3.5q-.5 4.8-.7 9.6l-.2 2.6c-.3 6.6-.5 13 4.1 18.3 4.7 2.5 8 2 13 .6l6.6-2.2c3.2-1 6-1 9.2-1 .8 1.8.8 1.8 1 4-1.8 2.4-1.8 2.4-4.5 4.9l-2.7 2.7q-4.5 4.2-9.4 8l-1.4 1.5v2l1.7-.8 7.5-3.7 2.7-1.3 2.5-1.2 2.4-1.2c2.2-.8 2.2-.8 6.2-.8-.5 4.7-2.7 7.7-5.6 11.3l-1.4 1.8a73 73 0 0 1-8 8.7c-6 5.8-9.9 13-14 20.2l-1.4 2.3A116 116 0 0 0 1023 309c7.8 0 12.5-2.5 18-8h5v4l-5 4q-2.8 3.5-5 7l-1.4 2.2q-5 7.3-7.6 15.8l-1.3 3.8c-.7 3.2-.9 5.9-.7 9.2a85 85 0 0 0 18-13.1c3.3-3.1 5.5-3 10-3 .7 2.4.7 2.4 1 5-1.3 2.4-1.3 2.4-3 4h-2l-2 4q-2.2 3-4.6 5.7c-3.9 6.6-4.4 15.6-5.8 23-1.6 8.5-3.3 16.8-5.9 25-.7 2.4-.7 2.4-.7 5.4 3.5 1.9 6.8 2.3 10.7 2.8a80 80 0 0 1 21.1 8.4l3.2 1.6a62 62 0 0 1 18 13.2c.5 3.3.5 3.3-1 6-6.8 4-13.6 5.5-21.2 7a55 55 0 0 0-15.8 6c2.7 1.8 4.4 2.5 7.5 3.4a120 120 0 0 1 16.4 6.2l2.8 1.2c3.7 1.6 7 3 10.3 5.2 0 3 0 3-1 6-3.5 2.6-7 2.2-11.3 2h-6.7v2h-10l1.8 1.6q8.5 7.4 16 15.3c2.2 2 2.2 2 5.2 4v2q1.5.7 3 1v2h2l4 4.8 9 11q15.5 18 27 38.6l3 4.7c.2 3.6.2 3.6 0 7-1 1-1 1-3.8 1.3-3.7-.3-5.5-1.2-8.6-3.1l-3-2-3.2-1.8c-8.3-5-16.4-9.7-25.4-13.4l1.7 1.7a115 115 0 0 1 17.3 24.7l5 8.9 3 5c10.7 19.3 24.3 45.9 23 68.7l-2 3c-5.6 0-5.6 0-8-1l-3-5q-2.9-2.5-5.9-4.8l-1.7-1.3c-22.8-17-22.8-17-31.4-17a39 39 0 0 0 3.6 17.7l1.1 3a219 219 0 0 0 6.3 15c3 6.9 5 13.9 7 21l.8 3.5a58 58 0 0 1 2.2 21.9c-2 3-2 3-5.4 3.9-3.6 0-3.6 0-6-1.2-1.6-1.7-1.6-1.7-1.6-3.7l-3-1v-2l-3-1-2.3-3c-9.5-11.4-25-19-38.7-24 6.6 9.7 6.6 9.7 10 13.5 2 2.5 2 2.5 2 4.5h2l3.5 4.2 1.8 2.4c1.7 2.4 1.7 2.4 2.8 5.2l1 2.2h2l5.4 8.7c9.2 16 9.2 16 8.4 23.5-.9 2.8-.9 2.8-2.9 4.8-6.7.9-11.3-1.1-17.3-3.8q-3.3-1.5-6.7-2.2v-2l-1.8-.5c-3.5-1.2-6.7-2.2-9.9-4.1-2.8-1.7-5.2-2-8.3-2.4l2 1.6c13 10 13 10 14 17.2.2 2.3.2 2.3 0 4.2-4 2.6-5.4 1.9-10 1l-6-1.4a200 200 0 0 0-31-4.6l2.2 2.2 7 7.3 2.1 2.2c1.7 2.3 1.7 2.3 2.1 5l.6 2.3c2.1 1 2.1 1 5 2q3.5 2.5 7 5.3l1.7 1.5 3.5 2.8 3.6 2.8 4.2 3.6v2h2l4.2 4.9 2.2 2.7q9.3 12 16.2 25.6l1.7 3.3c4.1 8 7.4 15.8 9.7 24.5l.6 2.5a274 274 0 0 1 5.8 29.4c3.6 21.8 7.1 44.2 2.6 66h22.2l10.3-.1 11.8-.1h10.3l2.4.3c20.7 31-1.8 117.6-8.4 152.6l-4.6 20.4-.5 2a667 667 0 0 1-17.3 58.6l-4.6 13.7-3.2 9.8-1.5 4.7-2.2 6.5-1.2 3.8c-1.5 2.9-1.5 2.9-3.7 4-3.5 1-6.5 1.2-10 1.2h-77.5l-38 .2h-89.9l-45.7.2-146.4.2h-42.2q-75.6 0-151 .3H382q-24.4.3-49 .2h-91.4q-36 .3-72 .2h-85q-7.2.3-14.4 0l-5.2.2H54.2c-3.2-.8-3.2-.8-5.6-3.6a75 75 0 0 1-5-12.6 179 179 0 0 0-3.8-11.7l-2.4-7.5-5.3-15.8a628 628 0 0 1-29-137.6l-.5-3.3A518 518 0 0 1 .3 965l.1-2.8.2-2.7.1-2.3c.3-2.8 1-4.8 2.3-7.3 2.4-.6 2.4-.6 5.4-.6h11.2l10 .3h10.2l20.2.3-.2-2a242 242 0 0 1 4.2-70l.6-3.6c3.2-18.6 8.2-35.5 17.5-52l3.3-6.3a97 97 0 0 1 23.6-30h2v-2q4.4-3.7 9-7l2.4-1.8A72 72 0 0 1 142 765l3.6-1.3q12.7-4.3 26-5.5l2.5-.3 2.2-.2 1.7-.7c.7-2 .7-2 1-4-7.8 1.9-7.8 1.9-10 3h-8c-.7-7.1 1.7-13.3 4-20a106 106 0 0 0-35 20l-2.7 2.2a58 58 0 0 0-11.9 13.4c-1.4 1.4-1.4 1.4-4 1.8l-2.4-.4c-5.2-10.3 1-29 4.3-39.2 7-20.4 7-20.4 11.7-27.8a57 57 0 0 0-21 4.9 18 18 0 0 1-10 1c-1-9.6 2.1-16.3 8-24l-3.6 1q-6 1.3-12.3 1.9-9.2 1.3-17.9 3.8A50 50 0 0 1 49 697c-1.3-11 5.6-21.4 10.4-30.8l1.4-2.7A99 99 0 0 1 71 648c4.8-6.4 4.8-6.4 6-10 1.6-1.4 1.6-1.4 3.5-2.7l2-1.3 1.5-1q-13.5 1.2-26.8 3.6-4.1.7-8.2.4c-1-1-1-1-1.3-3.2.4-3.6 1.8-5.2 4.3-7.8h2l.7-1.7c1.8-3.2 4.5-5 7.4-7.2l1.8-1.3 3.5-2.6 5.6-4.3q12.8-9.5 27-17c-9.3-.4-17.3.3-26.2 2.7A32 32 0 0 1 62 596l-2-2c0-7.2 2.4-10.7 7-16l2.8-3.3 4.7-5.5q4.2-4.7 8-9.7a319 319 0 0 1 17-20.3 73 73 0 0 1 11.7-11.1l2-1.5c4.5-3.6 4.5-3.6 6.8-3.6-6.2-6.7-16-6.8-24.5-7.8-6-.8-10-1.8-14.5-6.2-.7-6 1.3-8.7 4.8-13.3q6-7 12.6-13.4l2.7-2.7q7.7-7.7 16-14.6l1.5-1.4 4.5-3.8 3-2.5q4.2-3.4 9-6.3l-2.5.7A59 59 0 0 1 109 454c-1.7-1.3-1.7-1.3-3-3-.8-6.6 2.3-12.6 5.2-18.3l2.5-5 1.2-2.5q2-4 3.6-8.3a119 119 0 0 1 18-31.5c2-3.1 2-4.8 1.5-8.4-1-2.7-1-2.7-2.5-5.4-2.3-4.7-3.9-8.4-2.5-13.6a73 73 0 0 1 13.6-20.2c3-3.4 5.1-7 7.4-10.8l-2.5.5c-9.7 1.4-9.7 1.4-13.5-.5-.5-3.4-.6-5.3 1.6-8.1l2.2-1.8 2.1-2q6.9-4.7 14.1-9.1l-2.9.5c-34.2 5.5-34.2 5.5-49 4.5q-.7-2.4-1-5l7.6-4 2.1-1q5.5-2.7 11.2-5a127 127 0 0 0-28.9-2h-5.8c-2.3 0-2.3 0-5.3-1-1-3-1.4-5-.4-8 4-8.6 10.4-14.1 18.1-19.4l2.3-1.7c5.7-4 5.7-4 8-4v-2a54 54 0 0 0-35 10q-9.4 5.9-19.2 10.7a70 70 0 0 0-11.8 6.9c-2.8 1.9-4 2.5-7.5 3-2.5-.5-2.5-.5-3.7-2.2C30.3 269 45.6 243.5 52 228l6.7-16.3.8-2.1q5.5-13.4 10.2-27.2a94 94 0 0 1 7.1-16q1.8-3.9 2.2-8.4c-7.7 3.9-14.4 8.4-21.2 13.6l-14 10.4q-6.5 4.5-12.3 10c-1.5 1-1.5 1-4.5.9l-2-1c.4-8.7 5.5-15.7 10.2-23q4.7-7 8.6-14.6 4.9-9 10.4-17.8l1.3-2L59 129a91 91 0 0 0 14.6-38l1.2-7.8.6-3.8C77.6 66 81.5 54.3 92 45l1.8-1.7c16.7-16 36.8-21.7 59.4-23.4l3.4-.2q11.3-.9 22.5-1.1 19.2-.8 38.2-3l14.1-1.1c20.7-1.5 39-4.2 58.1-12.5 9.4-3.6 18.2-2 27.6.7"/><path fill="#cb0027" d="M19.6 959.8h2.1l7.1-.1 5-.1 46.4-.3 34.3-.3 24.1-.2 14.4-.1c21.9-.4 38.5.2 57.6 11.9a57 57 0 0 0 42.5 4.8 73 73 0 0 0 23.7-10.9c6.8-5.4 13.2-5.3 21.6-5.2l4.3-.1 12 .1h70l57.3.1h78.2l126.8.1 123.2.2h123.3l238.5.3 1.1 16.2q1.4 18.9.9 37.8v2.5c-.3 15-2.6 29.7-5 44.5l-.3 2.1a949 949 0 0 1-17 83.1l-1.7 7q-3 11.1-6.2 22.1l-2.1 7.3a146 146 0 0 1-9.8 26.3c-.9 2.1-.9 2.1-1.4 4.4-.7 2.9-1.4 4.5-3.5 6.7-5.4 1.5-10.9 1.2-16.5 1.1l-5.3.1h-99.5l-73.8.1-64.6-.1H823l-17.4.1H682.1l-37.1-.1H497.8l-37.1.1H72.2c-4.9.1-9.5.1-14.2-1.3-2.9-3-3.9-6-5-10l-1.8-4a444 444 0 0 1-23.5-79.9l-1.9-8.3L23 1105l-.5-2.2a621 621 0 0 1-6.1-33.6l-.6-3.8-1.5-10.1-.7-4.8c-2.3-14.9-3-29.4-2.9-44.5l.1-10.6c.1-35.5.1-35.5 8.8-35.6"/><path fill="#32324b" d="M789.4 11.8h2.6q8.5 0 16.9 1.7a1030 1030 0 0 1 95.7 12.1l3.4.6q10.5 1.8 20.9 4.2 8.5 2 17 3.6a389 389 0 0 1 59.2 16l7.5 2.6q12 4.3 23.4 10l2.9 1.3a118 118 0 0 1 17 10.1l2 1.2c3 2.2 4 3.4 4.7 7-1.8 11.3-9.5 21.7-15.7 31a42 42 0 0 0-3.7 6.5c-4.1 8.4-9.6 16-15.2 23.5q-3.8 5.5-7.4 11.2l-3 4.6a70 70 0 0 0-7.1 14.5q-2 4.6-4.3 9.2-4.4 8.9-8.4 18l-1.4 3.1q-3.6 8.3-7.1 17c-4.7 11.2-9.6 22-15.7 32.5a50 50 0 0 0-6.1 16.4c-.5 2.4-1.3 4.2-2.5 6.3-12.2-2.7-21.5-5.8-28.7-16.6l-5.3-9.2a511 511 0 0 0-20.8-33l-1.5-2.2a391 391 0 0 0-15-20.8q-6.4-8.4-11.5-17.7l-1.8-3-8.6-15.2a199 199 0 0 0-15.1-24 225 225 0 0 1-10.7-16.8q-4.8-7.9-10.3-15.2A48 48 0 0 1 831 94q-1.9-3.3-4.2-6.4a198 198 0 0 1-25.6-48.5c-1.3-2-1.3-2-3.7-3-4-.2-5.6 1.5-8.6 4l-2.6 2a40 40 0 0 0-6.4 14l-.7 2.2a99 99 0 0 0 1 39.8c2.3 13.5 3.2 27.1 4.2 40.7l1.8 20.1q.8 7.8.9 15.6c.5 15.1 1.2 25.3 11.8 36.5l4.5 6.4 2.2 3.2 4.9 7.2c16.5 24.3 16.5 24.3 26.2 34.4A92 92 0 0 1 850 281l1.5 2.3c4 6.3 7 13.1 10 20q6.1 13.6 13 26.8 2.2 4.3 3.4 8.8 5.7 19.6 14 38.3 5 10.4 8.6 21.4a166 166 0 0 0 17.3 36.4l1.2 2c-2 1.7-2 1.7-5 3-1.8-.4-1.8-.4-4-1.2l-2.3-.8-2.7-1a220 220 0 0 0-55-13.2 498 498 0 0 0-63.3-2.9l-8.7.2q-38.6.4-77.3 1.7l-7.4.2a301 301 0 0 0-34.2 2.6c-9.2 1.2-18 0-27.1-1.6q-1.8-.1-3.7-.5c-9-1.4-9-1.4-11.3-2.5-.5-5.9.8-11.2 2.3-16.9l.8-3a311 311 0 0 1 38.9-90q.7-1.2 1.4-2 4.2-6.7 8.6-13l1.9-2.9q6.5-9.5 14-18.2c.5-.4.5-.4 2.2-2.6A83 83 0 0 1 734 245c.6-7.3-3-11.3-7-17l-1.4-2c-5.7-7.6-14.8-10.4-23.6-13v-1h19c-5-10-19.2-15.5-29.1-20l-5-2.6a245 245 0 0 0-74-20.4l-2.1-.3c-37.8-5-78.1-2.7-114.8 7.3l-2.8.8q-8.7 2.4-17.2 5.2l-2 .7a148 148 0 0 0-47 24.3l-2.2 1.6-1.8 1.4v2h19c-2.3 2.3-4 2.8-7.1 3.8a34 34 0 0 0-19.4 14.6l-1.3 2c-2.5 4-4.2 6.8-3.2 11.6 1.8 1.3 1.8 1.3 4.3 2l2.7 1 3 1c30.7 11.8 47.8 36.8 64.6 63.8l3.6 5.6a300 300 0 0 1 36.4 87.8A56 56 0 0 1 527 421c-31.4 6.1-31.4 6.1-45.6 4-11.8-1.5-23.7-1.7-35.5-2l-7.5-.3q-37.4-1.1-74.5-1.7h-8.1a486 486 0 0 0-67.3 3.4c-17.2 2-36.3 5.3-51.6 13.8-2 .8-2 .8-5-.2l2-2.8 2.4-3.8 1.3-1.8q3.7-5.8 6.4-12.6l2.8-4.9a279 279 0 0 0 24.8-54.9q2.3-6.7 5.4-13c2.3-5 3-9.7 3.3-15.2.6-8 3.8-15.5 6.7-23l.8-2a173 173 0 0 1 28.2-47l2.5-3c7.3-9 15.5-17 23.7-25.2q6.9-6.7 13.3-14 5.7-6.5 12.3-12 4.9-4.4 9.5-9.2c9.8-9.9 21-18 32.4-25.9 6-4.5 6-4.5 7-8.3q0-1.5.3-2.8c.7-5 1.9-7.4 6-10.6 4-3.3 4.8-6 5.8-11a140 140 0 0 1 6.7-20.9 62 62 0 0 0 3.8-16c1-6.6 1-6.6 3.7-8.9l5-2c3.7-1.5 6.6-3.7 9.6-6l1.7-1.4q5.8-4.5 11-9.7c1.7-1 1.7-1 3.5-1l9.2 4.2q7.2 3.6 14.8 5.7c5.6 1.6 9.5 4 14 7.7C514 88 514 88 516.7 88c2.3-1 2.3-1 4.3-4l1.5-9.3c.5-2.7.5-2.7 2.5-4.7l1 1.4c.4.3.4.3 1.6 2l1.5 1.8c4 3.8 8 5.2 13.6 5.2h4.2c4.9-.2 9-1 13.5-2.7 5.4-1.4 11-.9 16.6-.7l.9-2.8q1.5-4.8 4-9.2c2 0 2 0 4.6 2.2 2.5 2.8 2.5 2.8 3.6 5 .9 1.8.9 1.8 2.6 2.6 3.7 2 6.6 5 9.6 7.7a13 13 0 0 0 8.5 4l3.2-.5c3.5-5.2 3.2-10.3 3-16.3V62l2.6 2.3 11.6 9.4 1.8 1.5c5.5 4.3 8.8 6.2 16 5.8 2.8-1.4 3-3.2 4-6 4.3.5 6.2 3 9 6 2.5 1.2 4.3 1.1 7.2 1h4.7q.7-1.5 1-3l2 .7c6 2 10.9 3 17 1.3 4.6-2.3 7.8-5.6 11.3-9.2q4.7-4.5 9.8-8.8l3.3-2.8a579 579 0 0 1 33.4-27L765.2 23l2.2-1.6 8.5-6.7c4.3-3.5 8.2-2.9 13.5-2.9"/><path fill="#a20006" d="M1133 1027c-.2 12.6-2.4 24.8-4.6 37.2q-1.4 7.5-2.5 15.1a659 659 0 0 1-14.8 69.2q-2.3 9.4-5 18.7l-.8 2.7-1.6 5.5-2 7.2a146 146 0 0 1-9.8 26.3c-.9 2.1-.9 2.1-1.4 4.4-.7 2.9-1.4 4.5-3.5 6.7-5.5 1.5-11 1.2-16.5 1.1l-5.3.1h-99.5l-73.8.1-64.6-.1H823l-17.4.1H682.1l-37.1-.1H497.8l-37.1.1H72.1c-4.8.1-9.4 0-14.1-1.3-2.9-3-3.9-6-5-10l-1.9-4.1a448 448 0 0 1-23.4-79.8l-1.9-8.3L23 1105l-.5-2.2a704 704 0 0 1-9.1-53.5l-.5-3.4-.5-3q-.6-4.5-.4-8.9l1.7 1.2c20.2 13.5 44.1 21.4 66.8 29.5q7 2.4 13.9 5.4 8.3 3.3 17.2 5.2c8.6 2.1 16.7 5.5 24.8 8.7q17.3 6.6 35 11.7l5.2 1.6a352 352 0 0 1 16.3 5.2 133 133 0 0 0 18.5 5.5q24 6.2 48.4 11.5l6.1 1.4a770 770 0 0 0 133.3 19.9c2.8.2 2.8.2 5.9.7q7.6.9 15.4 1l3.3.1 10.4.4 10.5.4 6.5.2q8.6.3 17.2 1.2 5.7.4 11.3.5l2.3.1 7.2.2 4.9.1 11.9.3.9-2.8c2.3-6.7 6.8-11.2 11.7-16.1l1.8-1.8c4.3-4.3 4.3-4.3 6.6-4.3l2-4a53 53 0 0 1 4.5-6l1.7-2.2 1.7-2.2c16.4-21.4 16.4-21.4 27.4-22.9q3.7-.2 7.6-.1l2.5-.1c9.2 0 16 3.2 22.6 9.5a85 85 0 0 1 5.3 6.6l1.5 1.8q3.3 4.3 6.3 8.7a110 110 0 0 0 17.4 18.7c3.5 3.2 6.5 5.9 8.5 10.2v2c31.6-.7 31.6-.7 41.1-2q11.2-1.3 22.7-1.4 45.8-1 91.2-6.6l4.8-.6q50.7-6.1 100.5-17.8l9.3-2c32-6.9 32-6.9 47.2-12.8q6.9-2.5 13.8-4.7l3.2-1.1q10-3.4 20-6 4-1.2 7.9-2.9 8.3-3.2 17-6 20.1-6.7 39.5-15.4 9.3-4.1 18.6-7.8 9.8-4 19.2-8.9 13-6.7 26.5-12 5.7-2.3 11.3-5c2.2-1 2.2-1 3.2-1"/><path fill="#32324b" d="m1031 353-.8 3.8-1.8 10.5c-1.2 8-2.5 15.6-5.1 23.3-3.9 11.6-3.9 11.6-2.3 17.4 3.2 4.5 7.2 5 12.3 5.9 14 2.8 25.1 7.2 35.7 17.1q-4.6 2.3-9.5 3.8c-17.2 5.6-17.2 5.6-21.5 11.2 0 4.1.5 6.3 3 9.6 4 3.2 7.5 3.7 12.4 4.5 5.7 1 10.6 1.9 15.6 4.9v1h-2.6l-9.7-.1-4.2-.1h-9.6c-2.9.2-2.9.2-4.9 2.2 0 5.3 3.7 9.2 7 13q3.8 3.2 7.8 5.9c6.7 4.8 12 9.8 17.2 16.1l5 5.4q6.1 7 11.8 14a79 79 0 0 0 6.3 6.6 54 54 0 0 1 12.9 20l-3-1.5a391 391 0 0 0-20.6-10l-3.2-1.5a25 25 0 0 0-10.2-1c-1.9 1.1-1.9 1.1-3 3-.9 6.1.8 10.9 4 16l7.2 7.8c19.7 21.6 30.2 50.1 39.8 77.2-3.8 0-4.2-.9-7-3.4-4.9-4-10-7-15.6-9.9l-2.4-1.3c-14.8-7.6-14.8-7.6-20-6.4-5.5 5.6-6.4 10.3-6.3 17.9.4 3.9 1.6 6.8 3.4 10.2.9 1.9.9 1.9.9 5.9l-2.3-.4-3.1-.4-3-.4-2.6.2-.9 2-1.1 2c-2.7.4-5 .5-7.8.4l-2.1.1c-4.8-.1-7.9-1.1-12.1-3.5a79 79 0 0 0-21-4l1.1 2.3 1.4 2.9 1.4 3c1.1 2.8 1.1 2.8 1.1 6.8h2l2.1 4.9 2.9 6.1 1.1 2 2.1 4.1c2 4 3.5 7.4 3.8 11.9-1.1 1.9-1.1 1.9-3 3-2.7.7-2.7.7-6 0q-3.1-2.8-5.9-6a23 23 0 0 0-8.9-5.1q-3-1.3-5.7-3a46 46 0 0 0-9.7-4q-3.4-1.1-6.8-2.5l-2.1-.8-4.3-1.7c-5.1-2-5.1-2-8.1-1.6l-1.5.7c3.6 4.8 3.6 4.8 6.2 6.3 2.5 2.4 2.6 4.4 2.9 7.8-.1 1.9-.1 1.9-1.3 4l-.8 1.9 3.9 4.3c1.1 1.7 1.1 1.7 1 5.5-.9 3.2-.9 3.2-2.9 5.2-6.3.9-9-.3-14-4q-6.2-4-12.9-7.3l-2.5-1.4q-4.7-2.5-9.6-4.3v2q0 4-1 8c-4.5 4-4.5 4-8 4q-1.7 3.8-2.8 7.8L928 713c-3.1.8-3.1.8-6 1l1 4-2.1.4-2.7.5-2.7.5c-2.5.6-2.5.6-5.5 2.6-.3 2.1-.3 2.1-.2 4.6v2.7l.9 7.6c.3 2.9.4 3.9-.8 6.7-2.8 2.1-4.4 1.8-7.9 1.4a49 49 0 0 1-7.2-4.6l-4-2.8-2-1.4c-8.3-5.6-17.2-9.1-26.8-12.2l-2.3-.8A42 42 0 0 0 844 722l-3 2c1.6 3.7 4.1 6.7 6.6 9.9 17.3 21.9 17.3 21.9 16.4 32.1h2c.5 6.2.5 6.2-1.5 9.4-2.8 1.8-5 2.3-8.4 2.1-2.5-.6-3.8-1.6-5.8-3.2A99 99 0 0 0 805 753v2a47 47 0 0 1-12-4l2.1 2.8 2.7 3.8 1.4 1.8c7 9.7 10.3 20.6 8.8 32.6-1.1 1.9-1.1 1.9-3 3-5 .9-7.7-.7-11.6-3.4l-2-1.4-3.8-2.7-1.9-1.3-6.7-4.2a161 161 0 0 0 13.8 24.6c1.5 3 1.6 5 1.2 8.4-2 3-2 3-5.1 3.7-4.9-.9-6.5-2.7-10-6.1a92 92 0 0 0-12-8.8l-2.3-1.6q-6.7-4.3-13.6-8.2l.8 1.6 3.5 7.3 1.2 2.5A46 46 0 0 1 763 830c-1.2 2.9-1.2 2.9-3 5-2.4.3-2.4.3-5 0-1.6-1.3-1.6-1.3-3.2-3.2a88 88 0 0 0-16.6-13.5c-5.9-4.1-5.9-4.1-8.2-5.3v6c-5.9-.6-10.8-4-15.8-6.8l-2.3-1.3-2-1.1c-1.9-.8-1.9-.8-5.9-.8l-1 3c-5.8-.6-10.7-2.8-16-5l1.2-1.9 3.8-5.9 3.9-6c19-29.5 32.3-67.2 27.5-102.8A68 68 0 0 0 693 649l-5.1-4.2q-4.6-3.9-9.6-7.5c-10.3-7.6-19.5-16-28.5-25l-1.8-1.7a63 63 0 0 1-19.6-31.2l-.6-2.3-1.8-7.1-.5-2.1c-9.9-38.1-9.9-77.1-5.5-115.9l5.1.3 2.8.2c7.6 1.3 7.6 1.3 10.1 3.5 1.8 4.1 2.5 8.3 3.3 12.7l1.2 5.8 1.6 8.4 3.2 16.1.8 4c4.4 21.8 9.7 43.1 17.1 63.9l1 2.8c6.6 18.7 14 36 26.8 51.3l1.4 1.8c3.4 4.3 7.4 7.7 11.6 11.2l2.5 2.2a78 78 0 0 0 54.5 17.1c8.7-.9 16.9-4.1 25-7.3l2.9-1.1 8.4-3.4 2.6-1a75 75 0 0 0 20.5-14.4q4.6-4.3 9.7-8a63 63 0 0 0 15.8-18.2q3-4.9 6.5-9.5l1.4-1.9q3.3-4.4 6.9-8.6a23 23 0 0 0 4.3-8.9q2.3-4.2 4.8-8.2c12-20.3 21.2-41.1 27.3-63.9 5.3-19.6 5.3-19.6 12.9-25.9 2.1-.8 2.1-.8 4.4-1.2 24.4-6.8 45.7-29.8 63.5-46.8l10.2-9.6 1.8-1.7q4.3-4 8.9-7.9c3.6-3.1 5.8-6.2 7.2-10.8l-.1-3.7.1-3.3 4.3-3.5c6.8-5.8 9.2-15.2 11.6-23.4l.7-2.3.6-2.1q1.6-3.8 5.8-3.7m-894 46 2 2 10.8 10.3 4.5 4.3 2.3 2.2 9.3 8.7 4.2 4q6.8 6.4 13.9 12.5l3.1 2.7a207 207 0 0 0 27.3 19.9c4.6 3.1 9.3 4.8 14.6 6.4 5.7 1.9 7.6 5 10.5 10 2.7 5.4 4.3 11.3 6 17.1l2.4 7.8 1.1 3.8a245 245 0 0 0 14.8 35.8q5.4 11.6 12.4 22.5 2 3.2 3.4 6.7c1.5 3.5 3.2 5.8 5.6 8.6q7.3 8.5 13.1 17.9c6 9.6 14.4 17.5 23.5 24.1l4.6 3.8C339 641.4 355 646 371 650.3c2 .7 2 .7 4 1.8 8.8 4 23.9 1.8 32.9-1.1q3.6-1.3 7.1-3l2-.8a92 92 0 0 0 27-18.2l2-1.8c14.8-13.6 23.6-33.6 30-52.3l3.5-9.8c8.7-24.1 14.1-49 19.5-74.1l.6-2.7 4.4-20.7.8-3.8.6-3.2c.6-2.6.6-2.6 1.6-5.6 2.3-.9 2.3-.9 5.1-1.7l2.8-.7c3.4-.7 6.6-.6 10.1-.6l1.3 15.9.4 5.5c1.3 15.1 1.6 29.6.1 44.8l-.5 3.9a338 338 0 0 1-9.5 54.9 60 60 0 0 1-13.1 26.2l-2.3 2.4-2.4 2.4-2.3 2.4q-6.1 6.2-12.7 11.9l-6.1 5.5q-6.5 5.5-13.2 10.8-7.2 5.5-14.1 11.2l-2 1.5A64 64 0 0 0 424 692a159 159 0 0 0 21.6 91 117 117 0 0 0 19.5 27.8q2.5 2.8 3.9 6.2l-3.2.5-4.2.7-2.1.3c-2 .4-2 .4-5.5 1.5-1.5 2.6-1.5 2.6-2 5l4 2-5 4-2-3-5-3c-1.4-2.7-1.1-5-1-8l1-3a158 158 0 0 0-21.8 14.4q-3.6 2.5-7.4 4.3a84 84 0 0 0-22 17.7L391 852l-3-1c-4.4-8.9-.3-24.9 2-34 1.1-2.5 1.1-2.5 2-4-7.4 3.7-12.4 6.5-16.6 13.8L374 829h-2a98 98 0 0 1 23-48 78 78 0 0 0-21.3 2.1q-12.4 2.6-24.4 6.7l-2.8.9-2.5.8c-2 .5-2 .5-4-.5l7-6-2-1.9c-2.7-4.2-2.9-7.2-2-12.1 1.9-5 4-9.4 8-13l-3.8 1c-5.6 1.2-11.5 2-17.2 1-2.4-1.8-2.4-1.8-4-4v-4l-7.2.8-2.1.2c-4.2.5-6.5 1.3-9.7 4-2.2.7-2.2.7-4.5 1.2-10.3 3-19.2 9.8-28 15.7A324 324 0 0 1 254 786a64 64 0 0 1 7.1-15.2l1.5-2.6q4.8-8.3 11-15.6c1.4-1.6 1.4-1.6 1.4-2.6l-2.9 2.5c-3.8 2.7-6.6 3-11.2 2.9-1.9-.4-1.9-.4-3.9-2.4a54 54 0 0 1 2.5-14.9q1-4.6 1.3-9.2c.2-1.9.2-1.9 1.2-3.9l-8 1-1-3c-2.4-1.6-2.4-1.6-5.4-3.1l-2.9-1.6a25 25 0 0 0-18.6-1.5 87 87 0 0 0-25 16.1l-2 1.7a31 31 0 0 1-7.1 3.4q.8-8.6 2.3-17.1l.3-2.1c.9-5 2.7-8.5 5.4-12.8l-2.2.9c-7.9 2.9-16.9 5.3-25.1 2.2-1.7-1.1-1.7-1.1-2.5-3.7l-.2-2.4-1.7 1c-4.2 1.8-8.7 1.4-13.3 1-4-1.6-5.3-3.1-7-7h-2l3-12-4.5 2-5.9 2.5-2.9 1.3a32 32 0 0 1-21.9 2.4c-1.8-2.2-1.8-2.2-1.8-4.8l.9-5.9.1-2.5c-3.5-2.3-4.9-2.3-9-2l-2.1.9c-4.1 1.5-8.2 2.2-12.5 3q-8.4 1.5-16.6 3.9A43 43 0 0 1 59 688c.5-6 3-10.7 5.8-15.9l1.4-2.8c5.5-10.1 14.1-25.1 25.5-29.3 2.3-1 2.3-1 3.6-2.7 1-3.2.9-6 .7-9.3-1-1-1-1-4.1-1.1h-13l-4.6.1H63c9.2-9.3 20.9-16.4 32.5-22.3l2.3-1.2 4.5-2.2a19 19 0 0 0 9.7-9.3c-.1-2.8-.1-2.8-1-5-5.5-3.7-11.3-3.2-17.7-3.1h-2.7q-8.8 0-17.6 1.1l1.1-1.4q5.7-7.6 11.1-15.4l3.1-4.4 1.4-1.9L91 560l1.5-2.2L94 556h2l.7-1.6c1.8-3.4 4.6-5.7 7.4-8.2l1.8-1.6 5.1-4.6 2.5-2.2q4-3.6 8.4-7c3.4-2.9 4-4.8 4.6-9.2-.5-3.7-1.3-5.6-4.1-8.2A63 63 0 0 0 95 506l-2-1c.5-4.1 2.6-5.9 5.4-8.8l2.7-2.7 2.8-2.7 2.9-2.9c6.9-6.9 6.9-6.9 9.2-6.9l.8-1.7c4.9-9.5 17.8-16.6 26.9-21.4 9.2-4.9 9.2-4.9 12.3-8.9.9-3.9.9-3.9 1-7-6.3-4-17-2.6-24.1-1.1l-7.1 2.2c-3.1 1-5.6 1.1-8.8.9a67 67 0 0 1 7.7-18.7c4.6-8.5 8.4-17.4 12.3-26.3"/><path fill="#c6c9c9" d="M554.6 449.9h36.8c19.3 0 19.3 0 23.6 2 1 9-.5 18.3-1.3 27q-1.6 19.9.6 39.4l.4 4c6 56.9 6 56.9 17.5 75 2.8 4.5 2.8 4.5 2.8 6.7l1.6.8c3.6 1.8 6 4.6 8.7 7.4q6 6.5 12.9 12.2l6.2 5.6q6.1 5.3 12.8 10a238 238 0 0 1 11 8.8l8 6.2a61 61 0 0 1 22.8 42c2.2 36.8-12.7 79-36.4 107.2a170 170 0 0 1-69.2 47c-17.3 7.2-38.1 5.3-56.4 4.8h-2.7c-14.3-.4-26.5-6-39.3-12l-2.4-1.1a137 137 0 0 1-58.6-50l-1.1-1.6a179 179 0 0 1-23-53.3l-.5-2.4c-4.6-18.1-6.7-39 .6-56.6l1.4-3.2a68 68 0 0 1 23.9-26.5l10.5-8.2 8.5-6.5c7.5-5.5 14-11.7 20.6-18.4a84 84 0 0 1 7.6-7 63 63 0 0 0 19.2-36.2l.8-4c6.9-31 10.8-63 7.8-94.7q-.4-6.8-.4-13.5v-2.6c0-6 0-6 1-7.2 8-1.2 15.8-1.1 23.7-1.1"/><path fill="#fefefe" d="M682.8 811a60 60 0 0 1 13.3 5.6c3 1.4 3 1.4 5 3.4h4q.3-2.4 1-5a142 142 0 0 1 51.6 32.2q12.6 11 24.3 23c7.3 7.3 7.3 7.3 12.7 8.4l2.3-.6c1.3-2.5 1.3-2.5 2-5 5 .5 8 3 11.6 6l2 1.5 3.6 3 4.8 3.9c6.4 5 11.7 10.5 17 16.6l2.6 3c4.7 5.5 8.5 10.9 12.4 17h-23c-1 4-1 4 .1 6a172 172 0 0 0 15 16q-3 2.3-6 4l-1.2 2.6c-1.9 2.4-1.9 2.4-5.5 3h-87.9l-32.9-.1h-12.4l-73.7-.1-71.5-.1h-24.2l-45.2-.1h-2L344 955l1.4-2.2 2-3 1.8-3c5.8-9.1 5.8-9.1 5.8-13.8-5 .6-10 1-15 2q4-6.7 8.8-13l1.6-2 4.6-6 1.4-1.8c2.7-3.4 4.2-4.5 8.5-5.4 4-1.4 7-4.2 10.2-6.6q4-3 8.2-5.5a112 112 0 0 0 32.7-31q4.8-6.4 10-12.7l2.4-3 2.4-3 2.2-2.7c2-2.3 2-2.3 5-4.3l1 1c4.1.8 7.6.8 11.3-1.3q3.4-2.7 6.7-5.7l2.2-2c3.1-2.5 5.5-4.6 7.8-8 3.2-1.1 4.7-1.5 8-1q3.4 2.6 6.4 5.7c12.4 11.4 29.5 18.2 45 24.6l3 1.3a99 99 0 0 0 30.8 7.9 112 112 0 0 0 30-1.1c30.7-4.8 67.7-22.3 87.7-46.7 2.1-1.7 2.1-1.7 5-1.6M569.3 171.7h25c12.8 0 25 1.4 37.7 4l2.4.6C661 182 690.2 190 712 207l1 2h-16l-1 4c3.6 2.3 6.9 3.7 11 5a41 41 0 0 1 24 22v2l-1.8.6c-22 7.5-22 7.5-30.2 14.4l-2.2 1.6c-23.2 16.9-39.3 46.8-52.8 71.4l-2 3.4a283 283 0 0 0-22 55.2c0 .5 0 .5-.8 2.8l-2.4 8-.8 2.4c-2 6.5-2.8 12.4-4 19.2h-80l-1-11-2-7.1-.6-2-2-5.8-1.4-4.1-2.7-8.2-3.3-9.8a251 251 0 0 0-32.5-66.3q-2.8-3.9-5.2-8a173 173 0 0 0-16.8-22.8A74 74 0 0 0 425 246l-3.3-1.2q-3.8-1.6-7.7-2.8c.7-4.1 3-7.1 5.3-10.5l1.2-1.7a27 27 0 0 1 15.5-11.4q6-2 12-4.4l-1-5h-15v-2c16.2-12.7 38.3-20.8 58-26l3-.7q4.8-1.4 9.5-2.5l3-.7 9.5-2.1 3.7-.8c16.6-3.4 33.8-2.6 50.6-2.5"/><path fill="#0a0a17" d="M416.6 108.5c2.4 1.5 2.4 1.5 4.4 4.5q-1.3 4-2.9 8c-4.9 13.2-4.9 13.2-3.1 19 2.7 2.5 2.7 2.5 6 4l2.4 1.2 1.6.8-2.4.5C420 148 420 148 419 151l-.5 3.8c-1 7-3.2 9.7-8.7 13.8l-2.3 1.6a261 261 0 0 0-39.6 34l-5.7 5q-6.1 5.5-11.7 11.7-8.3 9-16.9 17.4-9 8.8-16.6 18.7l-2.8 3.5A191 191 0 0 0 286 311l-1.3 3.4a55 55 0 0 0-3.4 17c-.5 4.1-1.8 7.7-3.3 11.6l-1 2.6-2.5 6.3-3.3 9.2q-6.2 17.5-14.3 34.2l-.9 1.8a160 160 0 0 1-11.6 20.6 61 61 0 0 0-4.4 9.3c-6.2 11.7-6.2 11.7-10 13-7-3.2-12.6-9.2-18.2-14.4q-7.4-6.9-15.3-13.4a607 607 0 0 1-17-15q-5.3-5-10.9-9.8c-1.6-1.4-1.6-1.4-4-4.4-3.3-2.6-5.3-2.5-9.4-2.3q-4.1.4-8.2 1.3l1-2c0-4.8-.5-9.4-2.6-13.7A18 18 0 0 1 144 356c1.5-3 1.5-3 3.6-6l2.2-3.2a140 140 0 0 1 6.9-8.4c3.3-3.7 4.6-6 4.4-11-.6-3.9-.9-4.3-4.2-7L154 319c1.3-3.8 2.7-4.4 5.9-6.6 4.9-3.3 4.9-3.3 7.1-5.4.2-2 .2-2 .1-4.2l-.1-3.8a65 65 0 0 0-21.6.4l-3.1.4-7.3 1.2c2.2-2.2 3.7-2.8 6.6-3.8 2.5-1 2.5-1 4.4-2.2.6-2.8.6-2.8 0-5-11.3-4.6-23.3-4.2-35.3-4.6H107l-9-.4a92 92 0 0 1 28.3-22.4c5-3 9.5-6 11.7-11.6v-7c-3.7-.3-6.5 0-9.9 1.4-8.4 3.3-17.2 2.7-26.1 2.6a59 59 0 0 1 10.7-7.2l3.4-1.8 1.8-.9 9.5-5 1.9-1 18.6-10.3q25.7-14.7 52.3-27.9l2.8-1.5 6.4-3a330 330 0 0 0 24-13.3l7.1-4.3 3.4-2q9.5-5.6 19.1-10.8l2.1-1.2c13.7-7.5 13.7-7.5 20.8-10.3a246 246 0 0 0 40.6-22c5.5-3.6 11.2-6.2 17.2-8.7q7.5-3.3 14.5-7.5c21.4-12.2 36.3-11.7 58.4-.8M787 41h1l.6 2.6c1.3 3.2 2.1 4.3 4.6 6.6a76 76 0 0 1 14.6 21 165 165 0 0 0 20 28.9l10 13.7q4.2 6 8.7 11.8a245 245 0 0 1 20.6 32.2q3.4 6.2 7.5 12.1 3.7 5.6 7 11.5 3.6 6 7.8 11.6 4 5.1 7.6 10.4l1.6 2.3q6.6 9.3 12.7 19l2.5 4.1 1.3 2.1q4 6.4 8.6 12.2 4.8 6.2 8 13.2a35 35 0 0 0 20.5 19.9c5.9 2 10.6 3.5 16.8 1.8l.3-2.7c.7-3.3 1.6-5.8 3.1-8.8l1.5-3.1 1.6-3.3 1.7-3.4q4.8-9.9 10.3-19.4c5-8.7 9.1-17.8 13.4-26.9l7.4-15q4.8-9.5 8.9-19.1 3.5-7.9 7.8-15.3c1.1 3.4.8 4.1-.3 7.4a88 88 0 0 0-3.3 17.6l-.8 6.1-.3 2.7c-.3 2.2-.3 2.2-1.3 4.2-.7 11.6-.7 21.2 6.1 31.1 3 3.1 5.3 3.1 9.5 3.5l3.1.2 2.3.2-1.2 1.6-1.7 2.2-1.6 2.1c-2.7 3.8-3.9 6.4-3.5 11.1 1 1 1 1 3.5 1.1h3.1l3-.1h2.4q-2.1 4.5-4.8 8.6A424 424 0 0 0 1021 293l-1.2 2.3c-2 3.7-3.3 6.6-3.2 10.9l.1 2.5c.4 2.7.6 4.2 2.3 6.3 3.6.8 3.6.8 7 1l-1.2 2.9a67 67 0 0 0-6.8 34.1c2 2 2 2 5.1 2.1l2.9-.1a51 51 0 0 1-13 30l-2.2 2.2c-4.2 1.2-6.7-.8-10.4-2.8L998 383c-3-1.3-3-1.3-6-2l-2.2-.5c-3-.5-4.9-.4-7.8.5-4 3.2-7.3 6.8-10.7 10.5q-2.5 2.8-5.4 5.1l-9.4 8.4a504 504 0 0 1-17 15.1l-6 5.1L920 437c-7.4-6.5-11-15.8-15-24.6l-1.3-2.9q-4.4-9.8-7.5-20-2-5.6-4.6-10.9c-3.6-7.3-6.2-14.8-8.9-22.5q-2.2-6.3-4.7-12.6-1.9-5-3.4-10.1a71 71 0 0 0-6.3-13q-5-9.7-9.1-19.9-3.5-8.5-8.2-16.5l-1.2-2.1c-4.3-7.2-8.3-13.9-14.6-19.6-9.7-9.9-17.4-22.3-25.1-33.8q-5.1-7.5-10.5-14.8l-1.1-1.7-3.7-4.7c-7.3-9.2-8.3-17-8.7-28.5l-.3-5.2-.5-10.5q-.7-11.6-1.9-23-1.1-10.6-1.7-21.2-.7-11.5-2.8-22.8c-2.6-16.4-4.9-35.5 4.1-50.5 2-2.6 2-2.6 4-4.6"/><path fill="#454861" d="m389 437 3.4.1c24.2.5 48.4 1.5 72.2 5.5l7.6 1.2 5 .8 2.3.4c5.4.9 5.4.9 6.5 2 .2 46.6-14.4 94.6-33 137l-1.4 3.2a104 104 0 0 1-11 18.1l-1.7 2.3a61 61 0 0 1-38.3 25.6c-18.5 2.7-36.7 1.5-52.6-9.2q-3.6-3.2-7-6.8-2.7-2.9-5.6-5.3-15.8-13.5-28.4-29.9l-1.5-1.9c-26.3-34.7-45-75.4-47.5-119.1l-.2-2.6c-.2-2.4-.2-2.4.2-6.4 3.9-3.1 8.2-3.9 13-4.7l2.3-.5 7.6-1.3 2.7-.5c34.6-6 70.3-8.9 105.4-8m367.9 0c37-.9 74.7 2.6 111 9.4l6.2 1.1 3 .4 2.6.4c2.7.8 4.3 1.8 6.3 3.7.9 4.2.3 8.7 0 13l-.1 2.6a116 116 0 0 1-8 39c-10.8 29.1-24.2 58.7-46 81.4l-3.2 3.8a255 255 0 0 1-27 27.2c-15 13.2-31.3 16-50.7 15a56 56 0 0 1-34-14l-1.6-1.3a50 50 0 0 1-11-12.5l-1.3-2-4.1-6.2-1.5-2.4q-5.8-9.2-9.6-19.4l-1.4-3.4A502 502 0 0 1 664 499l-.5-2a182 182 0 0 1-4.5-50c8.7-8.7 39.5-7 51-8l2.3-.2 12.7-.8 3-.2z"/><path fill="#fefefe" d="M554.6 449.9h36.8c19.3 0 19.3 0 23.6 2 1 9-.5 18.3-1.3 27q-1.6 19.9.6 39.4l.4 4c6 56.9 6 56.9 17.5 75 2.8 4.5 2.8 4.5 2.8 6.7l1.6.8c3.6 1.8 6 4.6 8.7 7.4q6 6.5 12.9 12.2l6.2 5.6q6.1 5.3 12.8 10a238 238 0 0 1 11 8.8l8 6.2a60 60 0 0 1 19.9 27.5c4.3 11.5 1.3 27-2.1 38.5a24 24 0 0 1-10.1 12c-5.4 1.9-11.3 1.4-17 1.4h-6.7a73 73 0 0 1-36-8l-3.3-1.7c-4.6-2.7-4.6-2.7-6-4.7.4-3.8 2-7.1 3.5-10.7A72 72 0 0 0 645 684l.2-3c.2-6.8 0-12.4-4.8-17.8-18.1-16.8-50.1-19.3-73.7-18.6-10.7.6-21.2 2.5-31.7 4.4l-2.4.5c-12.1 2.2-24.3 7-31.6 17.5-5.4 14.4.4 31.6 6 45l1.3 2.2c1 2.4.7 3.4-.3 5.8-1.6 1-1.6 1-3.6 1.9l-2.3.9-2.4.9-2.3 1A72 72 0 0 1 453 726a31 31 0 0 1-8-6l-1.5-1.5c-10.8-11.7-13-22-12.5-37.5.6-9.3 6-16.1 12.6-22.4q4.5-3.9 9.4-7.6l2-1.5 16.9-13q12.4-9.2 23-20.3 3.6-3.7 7.6-7a63 63 0 0 0 19.2-36.2l.8-4c6.9-31 10.8-63 7.8-94.7q-.4-6.8-.4-13.5v-2.6c0-6 0-6 1-7.2 8-1.2 15.8-1.1 23.7-1.1"/><path fill="#cb0027" d="M161 384q3.6 3 6.7 6.5 3.3 3.5 7.2 6.4 7 5.6 13.5 11.7 9 8.2 18.4 16l12.8 10.9 1.8 1.5c6 5.2 6 5.2 7.6 7v2l4-1 1-2c2.1-1 2.1-1 4.8-2l3.1-1.2c37.3-13.7 76-16.4 115.6-15.8l8.3.1a3854 3854 0 0 1 83.2 2c11.6.3 23 .7 34.4 2.5 7.6.8 14.5.4 22-1 20.2-3.5 40.4-3.2 60.8-3.1h15.9a314 314 0 0 1 59.7 3.6 67 67 0 0 0 22.3 0c11.2-1.6 22.5-1.8 33.8-2.2l3.6-.1q38.8-1.3 77.5-1.7l13-.2c19.8-.4 39.3 1 59 3.1l3.7.4a152 152 0 0 1 52.8 14.8c4.9 2.5 4.9 2.5 7.5 2.8q2.2-2.4 4.2-4.9 4-4.3 8.8-7.7 5.3-4.3 10.3-8.7l14.4-12.3q8-6.8 15.6-13.9l9.1-8.1c1.6-1.4 1.6-1.4 3.5-3.8 2.9-2.2 5.1-2.2 8.6-2.1q6.8 1.5 12.5 5.5c2.2 3.3 2.6 4.2 2 8-1.8 2.5-1.8 2.5-4.1 5l-2.5 2.6q-4 4-8.4 7.4l-5 5c-14.3 14.4-14.3 14.4-20 19.2l-6.1 5.7q-9.4 8.8-20.2 16l-4.8 3.2A29 29 0 0 1 918 467c-2.4.8-2.4.8-5.1 2l-2.4 1.1a39 39 0 0 0-12 20.7l-.9 2.7q-2.1 6.7-3.8 13.4a181 181 0 0 1-13.1 34.7c-4.2 9-9 17.2-14.7 25.4l-2.5 3.9L856 582l-1.4 2.1C834.1 614.3 810.2 635 775 646l-3.3 1a66 66 0 0 1-49.5-5.8A101 101 0 0 1 686 606l-1.8-3.1c-16.7-29.1-25.4-64.4-32.2-96.9l-.8-3.7-2.3-11.1-.8-3.6q-1.9-8.8-3-17.8c-1.7-12.9-1.7-12.9-4.1-17.8a17 17 0 0 0-11.2-3.7q-4.6-.2-9.2-.8a377 377 0 0 0-43.8-1.8h-10.4c-51.5-.1-51.5-.1-61.4 5.3-2.5 5-3.8 9.9-4.8 15.4l-.9 5-.5 2.6-2.7 14-.5 2.8a578 578 0 0 1-17 67.1l-.9 2.9a252 252 0 0 1-15.7 38.1l-3.7 7.9A96 96 0 0 1 414 645l-3 1.2c-22 8.1-45.1.3-65.4-9a108 108 0 0 1-30.2-21.8l-3.8-3.6c-9.5-9-17.2-20.2-24-31.3l-5-7.3-3.6-5.2-2.1-2.9q-7-10.8-12.6-22.5l-1.3-2.7a276 276 0 0 1-15.6-43.9c-5.9-20.8-5.9-20.8-12.5-25.5q-2.8-1.5-5.9-2.5l-2.5-1.1c-2.5-.9-2.5-.9-6.2-1.6a34 34 0 0 1-12.1-6.4l-2.1-1.5a257 257 0 0 1-34.5-29.8q-3-3-6.3-5.8a275 275 0 0 1-17.5-16.5l-2.6-2.6-2.4-2.3a13 13 0 0 1-2.8-8.4c1.4-3.4 3.9-4.7 7.1-6.2 4.7-1.9 9-3.4 13.9-1.8m119.9 61.5-2.6.5-7.3 1.3-2.3.4c-4.1.8-7.4 1.6-10.7 4.3-.3 3.2-.3 5.8 0 9l.1 2.7c2.4 43.1 22.7 86.1 49.9 119.3l1.3 1.6a280 280 0 0 0 34 34.9l4.4 4.1c13.6 11.2 31.7 11.7 48.4 10.2a60 60 0 0 0 40.7-23.1A154 154 0 0 0 460 567l.7-2c13.3-37.4 26.8-77.8 25.3-118-2.1-2.1-6-1.9-8.8-2.4l-2.5-.4-5.1-.8-7.3-1.2c-24.2-4-48.8-4.7-73.3-5.2l-2.8-.1c-35.1-.8-70.7 2.5-105.3 8.6m469.9-8.4a657 657 0 0 0-44.3 2.3l-2.2.2A357 357 0 0 0 677 443l-2.6.4-6.6 1.2-2.3.3c-5.4 1-5.4 1-6.5 2.1-2.7 49.5 15.4 119.5 45.8 159.4l3.1 4.3a58 58 0 0 0 37.9 22.9c16.8 1.5 34.7 1.1 49.2-8.6q2.7-2.4 5.1-5.1 3.4-3.3 7.3-6.3c8-6.5 14.9-13.8 21.6-21.6l2.6-2.9A223 223 0 0 0 869 528l1.3-3.1 3.7-8.9 1-2.3 3.2-7.9 1-2.6a82 82 0 0 0 6.2-29.5c1.4-17.9 1.4-17.9.6-21.7-3.4-3.4-7.5-3.9-12.1-4.7l-2.4-.5-7.9-1.3-2.7-.5a588 588 0 0 0-110.1-7.9"/><path fill="#0a0a17" d="M972 669c4.7.2 9.4 2.6 13.8 4.4q8 3.3 16.3 5.9 4.2 1.8 7.9 4.7l3.4 1.3c3.4 1.6 4.7 2.7 7.2 5.4 2.4 2.5 3.1 3.2 6.6 4.1 3.7-1 4.8-2.7 6.8-5.8l1.1 1.9q6.5 11.2 15.3 20.9c15.6 17.5 15.6 17.5 15.6 25.2a74 74 0 0 1-16.2-6.8c-23.5-12.8-23.5-12.8-32.8-11.2-1.9 1.6-1.9 1.6-3 4-.1 3.6.2 6 2.4 8.9q2.7 2.8 5.7 5.5l2 2 4.9 4.6c-3.4.9-5.8.9-9.3.6q-9.9-.8-19.8-.7h-8.7c-2.2.1-2.2.1-5.2 1.1-.5 5.8.3 8.5 4 13q2.7 2.5 5.6 4.8l1.4 1.2v1l-3.1.1-4 .2-2 .1c-4.7.2-7.9 1.3-11.9 3.6-2.7.8-4.4 1.1-7.1.5q-5.6-1-11.3-.8l-2.2-.1c-5.6-.1-8.8 1.2-13.4 4.4-1.9 3.7-.8 8 0 12 1.9 3.4 1.9 3.4 4 6 3 3.9 3 3.9 3 6l-1.8.4-2.4.5-2.4.5a24 24 0 0 0-6.4 2.6q.7 6.7 3 13-4 1.1-8.2 1.2l-2.3.1-4.9.2A26 26 0 0 0 912 818l2 2.4a188 188 0 0 1 16.7 23.7l1.4 2.3 1.2 1.9.7 1.7-1 2-2.8-1.7-3.8-2.2-1.8-1.2A27 27 0 0 0 912 843c.8 5.6.8 5.6 2 7.8 1.4 3 1.3 5.6 1.4 8.9l.1 4 .1 4.1.1 4.1.3 10.1c-8.5 2-16-1.6-23.8-4.9a33 33 0 0 0-13.4-3.2l-3.8.1a9 9 0 0 0-.4 6.8l3.1 6.1 1.1 2q2.5 5 5.5 10c1.7 3.1 1.7 3.1 1.7 5.1a54 54 0 0 1-17-5 20 20 0 0 0-14-1c-2 2.1-2 2.1-3 4a45 45 0 0 1-12.9-6.3l-1.9-1.3q-8.6-6-16.5-12.8c-16.1-13.2-16.1-13.2-23.7-12.6l-1.6 1.6-1.4 1.4c-4-.3-6-1.5-8.7-4.4l-2-2-2.1-2.2q-6.8-7.3-14.3-13.8l-4.9-4.4a106 106 0 0 0-24.3-18.4l-2.2-1.2-4.5-2.2c-2-1-2-1-5-3.4 0-3.8 0-3.8 1-7 10.6 3.7 20.2 13.2 28 21 2.4.3 2.4.3 5 0 2.2-2.6 2.4-5.5 2.3-8.8-1.3-9-5.5-17.1-9.7-24.9L750 795l1-2q12 6.8 23.2 14.8l1.9 1.4q3.9 2.8 7.1 6.1c1.8 1.7 1.8 1.7 5.5 2.1l3.3-.4c1.4-2.9 1.3-4.8 1-8-1.5-3-1.5-3-3.6-6.1l-2.2-3.4-1.1-1.7q-2.7-4.4-5.2-9l-1.7-3.2-1.2-2.6 1-2 8.3 5.4 2.4 1.5 2.3 1.5 2.1 1.4 4.9 3.2c3.1.2 3.1.2 6 0 2.7-2.7 2.4-4 2.4-7.8-.2-11.6-4.5-21-11.7-30-1.7-2.2-1.7-2.2-2.7-5.2 4.4.7 8 2.2 12 4v-2a83 83 0 0 1 49 23q5.2 1.3 9.9-1.1c1.6-2.8 1.8-5.7 2.1-8.9h-2l-1.1-3.7a100 100 0 0 0-21-33.9L840 726c1-3 1-3 4-5 16.6-3.3 36.5 8.6 49.8 17.4l5.2 3.6c3.5 2.3 4.9 2.4 9 2 2.2-3.3 2.2-3.5 1.6-7.1-1.4-10.7-1.4-10.7-.6-14.9 2.6-2.7 4.4-3.8 8.2-4.2l5.8.2-2-5h7l.3-2.2c1.2-4.7 2.9-7.2 6.8-10.1 2.9-1.7 2.9-1.7 4.9-1.7l-.1-3.3c.1-3.7.1-3.7 1.1-6.7a30 30 0 0 1 10.7 3.9l3.2 1.7 3.3 1.8 3.3 1.9c8.2 4.4 8.2 4.4 10.5 6.7 1.9.3 1.9.3 4 .3l2.1.1 1.9-.4c2.2-3.3 2.6-4.2 2-8l-2.6-3.1-2.4-2.9c.8-1.9.8-1.9 2-4 .1-4.5.1-6.7-2.9-10.1q-2.9-2.5-6.1-4.9zm-823 17c-.5 4.3-1.2 8-3 12l3-1 1.3 2.9c1.7 3.1 1.7 3.1 4.7 4.1l5.4.1h2.9q3.4-.1 6.7-1.1l.8 2.4 1.2 2.6c9.1 3 19.1.7 28-2l-3 7.3q-1.8 5.5-2.6 11.3l-.4 2.2q-1 5.1-1 10.2a91 91 0 0 0 13-9c9-7.4 18.3-13.4 30.3-13.3a31 31 0 0 1 13.6 5.4c1.7 1 1.7 1 4.1 2.9v3l8-1c-.4 7.3-1.6 14-3.5 21.1-.5 3-.3 5 .5 7.9 7.9.8 11.8-1.1 18-6a45 45 0 0 1-5.2 8.4c-6.5 8.7-11.7 18-16.8 27.6a266 266 0 0 0 30.8-18.4A92 92 0 0 1 308 755l3-2 7.7-.6 2.1-.1 5.2-.3.9 2.4c1.1 2.6 1.1 2.6 3.1 4.6 7.5.8 14.7-.2 22-2l-1.5 2.3-1.9 3-2 3A22 22 0 0 0 344 780c2 3.1 2 3.1 4 5l-7 6 1.9-.6a317 317 0 0 1 33.5-8.8l2.5-.5q8.5-1.5 17.1-1.1l-1.1 1.6-2.9 4.4-4.3 6.3A126 126 0 0 0 372 829h2l.8-2.1a25 25 0 0 1 13.5-13.3c1.7-.6 1.7-.6 3.7-.6l-.6 2.3a100 100 0 0 0-3.5 26.1v2.1c0 5.3 0 5.3 1.1 7.5a31 31 0 0 0 9.7-7.2 70 70 0 0 1 18.3-13.2c2.7-1.4 4.6-2.8 6.9-4.7 6.3-5 13.2-8.9 20.1-12.9l1 3-1 1c-.3 4-.3 5.6 2 9l2 .9c2.5 1.3 3 2.6 4 5.1-5.3 4.1-5.3 4.1-8.6 3.8l-4.8-1.7c-2.6-.1-2.6-.1-5.5 1.8a57 57 0 0 0-7.4 8.8q-3 4-6.3 7.9-3.8 4.5-7.2 9.5C410 865 410 865 408 866c-2.9 1.5-3.4 3.9-4.7 6.8-4.4 7.5-13.2 12.5-20.3 17.2l-4.5 3.1-4.9 3.3-2.4 1.6-2.2 1.5-2.1 1.4c-2 1.1-3.6 1.8-5.9 2.1-4.8-3.1-6.2-8.9-8-14-3.5 0-5.9.1-8.7 2.3-4.8 5.2-8.3 11.3-11.9 17.4L329 914h-2l-.5-2.5A55 55 0 0 0 310 881l-2.1-2.2c-5.1-5.3-5.1-5.3-7.5-6.8-6.5-4-8.7-9.7-11.7-16.5l-1.3-2.5-1-2.3-1.4-1.7h-5c-2.1-2.2-2.1-2.2-4.1-5.1l-2.1-3.1c-1.8-2.8-1.8-2.8-3.6-6.2-5.4-6.3-15.6-7.1-23.5-8.1-4.9-.9-7.7-2.3-11-6q-3.5-3-7.5-5.3c-4.9-3.5-4.9-3.5-6.2-6.4-.5-6.8 3.9-11.8 8-16.8l1-1 .1-4.1-.1-3.9a29 29 0 0 0-12-2 88 88 0 0 0-25 21l-1-2 2.3-5c1.2-3.4.9-6.5.7-10-3 1-3 1-4.3 3.2-2.3 3.7-5.2 5.9-8.6 8.5l-1.9 1.5c-3 2.2-5.8 4.3-9.2 5.8-1-1-1-1-1.2-4.9.3-15.1 7-28.2 15.9-40 2-3.3 1.9-5.4 1.3-9.1l-1-2c-3.6-1.2-6.9-1.1-10.7-1.1l-2.1.1H169l.6-2c3.2-10.4 3.2-10.4 3.4-14-1-1.9-1-1.9-3-3-5.6-.5-9.7.7-14.7 3l-2.1 1a96 96 0 0 0-25.9 17.9c-8.9 8.1-8.9 8.1-12.3 8.1a130 130 0 0 1 13.1-40.2c5.3-10.5 5.3-10.5 5.1-15.2l-.2-3.6c-10.8-.4-20.7.6-31 4 1.3-3.8 3.1-6.7 5.6-9.8l1.9-2.4 1.5-1.8 1.3 1.9c2.1 2.5 3.6 3 6.8 3.3 6.9.3 12.1-1.4 18.4-4.2l5.3-2.2 2.3-1.1c1.9-.7 1.9-.7 3.9-.7"/><path fill="#fefefe" d="m261.3 849.6 1.7 1.4v2l1.7.8c12.8 6.8 19.8 25.6 24.5 38.4 2.5 9 3.1 17.5 3.1 26.8l.1 6.4c0 10-.9 18.5-7.4 26.6a76 76 0 0 1-8 7l-1.8 1.5A67 67 0 0 1 232 974c-7.9-1.6-15.4-4.8-22.8-7.8l-2.4-1c-4.9-2-8.9-4.5-13-7.8a29 29 0 0 0-5.7-3.3c-9.8-4.7-16.7-12.7-24-20.6l-1.6-1.8-3.4-4c-3.3-2.6-6.8-2.6-10.9-3l-2.4-.1-5.8-.6 1.1-2.3 1.3-3 1.4-3c1.8-4 2.3-7 2.3-11.3l-.1-3.1V899c-5.1-.4-7.6.7-11.8 3.6L129 906l-2-1c5.8-10.8 5.8-10.8 8.2-14.3 2.9-4.3 3.9-7.8 3.6-13 0-5 1.5-8.2 4.2-12.5l1.2-2.1 3.8-6.1 2.1-3.3c4.1-6.3 7.6-9.6 14.9-11.7l2.7-.8c28.9-8 68-9 93.6 8.4"/><path fill="#006b77" d="M985 774a42 42 0 0 1 17.1 2.8c5.3 1.8 10.1 4 13.9 8.2l1 3 1.8.4c3 .8 4.3 2.4 6.4 4.7q4.3 4.5 8.8 8.3c31.1 27 37.5 72.9 40.4 111.7q1.2 17.2.1 34.3l-.2 2.2-.3 5.4-25.3.3-11.7.1-11.3.1h-4.3l-6.1.1h-3.5c-2.8-.6-2.8-.6-4.6-3l-1.2-2.6-1.4-2.7-1.5-2.9-1.7-3.3-1.8-3.5a831 831 0 0 0-15.8-29.4A77 77 0 0 1 977 892l1.8 1c2.6 1.2 4.4 1.2 7.2 1-.6-4.6-1.9-8.3-3.8-12.6l-.9-1.8-2.8-5.9-1.9-4.1q-6.8-14.5-14.6-28.6l-3.1-5.7-1.4-2.5q-5.3-10-10.1-20.1a18 18 0 0 0-4.4-5.7c1.9-1.9 5.1-1.9 7.7-2.4 2.4-.6 4.2-1.2 6.3-2.6.8-3.1 0-6-1-9a65 65 0 0 0-6.2-7.7 11 11 0 0 1-2.8-6.3c2.2-2.2 7-1.8 10.1-2.1l2.7-.3c8.2-.8 16-.4 24.2.4z"/><path fill="#070102" d="M636.7 659.1c5.6 4.8 8.8 8.1 9.6 15.6A98 98 0 0 1 617 744l-3.4 3.5A116 116 0 0 1 592 766l-2.6 1.7c-7.4 4.5-13.6 7.8-22.4 6.3a88 88 0 0 1-35-26q-3.2-3.4-6.8-6.6A96 96 0 0 1 498 682c-.1-13.6-.1-13.6 5-19 11-10 22.7-13.4 37-16l2.5-.5c28.6-5 70.2-6.2 94.2 12.6"/><path fill="#c6c9c9" d="M799 873c4.9.4 7.9 3 11.6 6l1.9 1.5 3.7 3.1 4.8 3.8c6.4 5 11.8 10.4 17 16.6l2.6 3c4.7 5.5 8.5 10.8 12.4 17h-23c-1 4-1 4 .1 6a188 188 0 0 0 14.9 16q-2.8 2.3-6 4l-1.3 2.5c-1.7 2.5-1.7 2.5-4.4 3.1h-41.2l-22.9-.1h-33.1l-53.7-.1-52.2-.1h-19.4L477 955a48 48 0 0 1 22-25q5.9-2 12-1a28 28 0 0 0 20.3 5.6H553l15.8-.1 18.2-.1h25l10.4-.1h8.5c2.1-.3 2.1-.3 5.1-2.3 12-2.6 22.2-1.5 33 4l3.9 1.9a109 109 0 0 1 20.3 11.9c1.8 1.2 1.8 1.2 3.8 1.2.6-6 .9-10.6-2.9-15.6L691 932l-1-2q13-2.9 26.2-4.4L728 924l2.9-.4 8.2-1.3 2.5-.3c3.4-.6 5.6-1.1 8-3.7q3.4-5.4 5.5-11.4c4-10.5 4-10.5 6.9-11.9l1-5 1.6 1c3 1.3 5.8 1.4 9.1 1.7 7.2.9 11.1 3.3 16.3 8.3 6.2 5.9 6.2 5.9 10.4 6.4l2.6-.4c0-10-3.9-16.6-10.4-23.9L790 880l1-3 1 1c2.4.4 2.4.4 5 0 1.3-2.5 1.3-2.5 2-5"/><path fill="#727283" d="M762.2 441.8h3.3a543 543 0 0 1 85.5 6.1l3.7.7 10 1.6 5.9 1 3.6.7q1.6.1 3.3.5c2.5.6 2.5.6 4.5 2.6a85 85 0 0 1-.6 11.6l-.2 2.1-.3 6.4-.1 2-.2 5.5c-1.1 11.3-6 22.1-10.2 32.4l-1.4 3.5c-4.7 11.4-4.7 11.4-7 15.5h-2v2a35 35 0 0 1-11.7-4.2l-2.1-1-12.8-6.8q-27.4-14.1-55.6-26l-8.7-3.6-6.1-2.6q-1.6-.5-3.4-1.3c-7.5-3-13.5-4-21.5-3.6-4.2 0-6.5-.9-10.1-3-2-3-2-3-2-6l-2.6-.4a85 85 0 0 1-13.7-3.9l-2-.6q-18-6-36.3-10.9l-3-.7-2.5-.6-2-1a28 28 0 0 1-1-10q19.4-3.9 39.3-5.5l2-.2q29-2.5 58-2.4"/><path fill="#006b77" d="M175 764q-1 4.7-3.1 9a57 57 0 0 0-4.9 34l1 2c5.4-.3 8.3-3.5 12.1-6.9l3.6-3.3 1.6-1.5q2.6-2 5.7-3.3c-3.3 10.6-3.3 10.6-6 15l-2.2 1.1-1.8.9c-.2 2.6-.2 2.6 0 5l8 1-.9 1.5q-1.4 3.1-2 6.4c-1.7 6.5-1.7 6.5-4.1 9.1-4.4 1.6-9 1.9-13.6 2.3-9.7.9-15.1 3.4-22.4 9.7l-4.5 3.3c-5.6 4.4-10.5 9.6-15.5 14.7l-2.5 2.3a58 58 0 0 0-7.3 10.5l-1.2 2.3-2.7 4.6-3.7 6.5A148 148 0 0 0 87 955H66c-2.9-15.9-4-31.5-1.9-47.6l.3-3c4.8-34.6 12.3-68.8 33.6-97.4l1.9-2.6c5-6.6 10.8-12 17.1-17.4l2.9-2.6c9.1-7.6 19-11.5 30.1-15.4l2.3-.8A52 52 0 0 1 175 764"/><path fill="#0a0a17" d="M338 469c4.2.5 8.2 1.9 12.3 3.2l2.1.7 23.5 7.7 4.4 1.5 8.2 2.7L401 489l4.2 1.4 2.1.7 4.5 1.5 11.9 3.9a293 293 0 0 1 22.7 8.4q5.2 2.2 10.6 4.1a63 63 0 0 1-14.6 39.1A69 69 0 0 1 398 572a71 71 0 0 1-52.7-15 61 61 0 0 1-20.3-33l-.6-2.3A70 70 0 0 1 335 473l1.4-2.5zm363.5 1a231 231 0 0 1 17.1 5c7 2.3 7 2.3 9.2 6l1.2 3c4.2 2 7.5 2 12.1 1.7 13.3-.2 26.3 6.2 38.1 11.9q3.9 1.9 7.9 3.6l9.4 4.2 2 .9 6.4 2.9 4.4 2L820 516a60 60 0 0 1-19.3 39.7 72 72 0 0 1-53.4 16.5A68 68 0 0 1 708 554l-1.9-1.6a65 65 0 0 1-19.3-42.8A68 68 0 0 1 694 478l1.2-2.4c3-5.6 3-5.6 6.3-5.5"/><path fill="#505050" d="M379.8 441.8h3.3a709 709 0 0 1 51 1.6c15.8 1.2 31.4 3 46.8 6.6.9 21.4-1.4 45-9 65-4-.6-7.5-2-11.3-3.4l-2-.7-5.7-2.2q-2-.9-4-1.4l-16-6.4q-9-3.4-18.3-6.3c-13-4.4-13-4.4-18.9-6.6q-10.2-3.6-20.3-6.7-3.3-1.2-6.7-2.2l-22.6-7.2-9.5-3a967 967 0 0 0-57.7-16 12 12 0 0 1 7.3-4l2.6-.4 2.8-.6q1.5 0 3-.4c14.6-2.4 29.5-3.4 44.3-4.6l4-.1c12.4-1 24.6-1 36.9-1"/><path fill="#32324b" d="M935 839c4.1-.9 7.9-1.1 11.8 1a71 71 0 0 1 14.9 13.7c2.3 3.3 2.3 3.3 5.3 5.3v3h2l2.4 5 1.3 3.2 1.4 3.3 1.4 3.3 3.5 8.2q-4 0-8-1c1.3 14.6 9.8 27.5 16.8 40.1a1108 1108 0 0 1 14.3 26.9c.9 2 .9 2 .9 4H889c0-11 0-11 1.6-13.7 3.2-1.7 4.9-1.9 8.4-1.3 2.9 1.8 4.6 3 5.8 6.2l.2 1.8c3.6-3.1 4.8-6.3 5.3-11l.2-6.3.5-2.7 2-1.3c2-1.7 2-1.7 2.5-4.1l-.1-2.9v-3.2l-.1-3.4v-3.4q-.2-11.3-1.3-22.7l2.4-.9c2.6-1.1 2.6-1.1 3.6-2.1l.6-4.1.4-3.9c4.4 1.3 6 2.9 8.2 6.9l1.5 2.6 1.3 2.5 1.2 2.1c.8 1.9.8 1.9.8 4.9h2l.2-12.4.1-3.6c0-6.2-.3-11.5-2.7-17.3-.6-1.7-.6-1.7-.6-3.7h7c-.3-5.5-1.8-8.7-5-13.1-1-1.9-1-1.9-.6-4.1z"/><path fill="#00a4ad" d="M988.2 773.5a66 66 0 0 1 13.9 3.3c5.3 1.8 10 4 13.9 8.2l1 3 1.8.4c3 .8 4.3 2.5 6.5 4.7q4.1 4.5 8.7 8.3c31 27 37.5 72.9 40.4 111.7q1.2 21-.4 41.9h-8l-5.3-16.2a495 495 0 0 0-17.6-47.2l-3.1-7.4c-13.4-33-30-68.2-52.4-96.1l-2.3-3-2.1-2.5c-1.2-2.6-1.2-2.6-.3-6 2-2.6 2-2.6 5.3-3.1"/><path fill="#32324b" d="M586.6 1088.9c9.6 5.9 15.9 16.2 22.3 25.3q7 9.7 16.3 17.5 4.5 3.5 7.8 8.3v2h-2.2c-7.6.2-12 1.8-17.8 6.5-2 1.5-2 1.5-4 1.5.9-4.7.9-4.7 2-7h-10l.7 4c0 3.6-.4 4.8-3 7.5a55 55 0 0 1-14.7 9.5l-4-1v-18h-9q0 1.5.4 3.2c-.4 3.8-.4 3.8-2.6 6.4l-3 2.2-2.8 2.2c-7.5 5-7.5 5-11.3 5-1.7-1-1.7-1-2.3-2.6q-.6-4.5-.4-9.1v-6.3c-5.5.4-5.5.4-8 1-1 2-1 2-1 4-6.7-.7-6.7-.7-9-3-2.2-.3-2.2-.3-5-.4l-3-.1-3.1-.1-3.1-.1-7.8-.3 1.9-4.3 1-2.4c2.8-5.7 7.4-9.5 12-13.5 6-5.2 10.7-11 15.3-17.4 11.4-16.1 26.2-30 47.4-20.5"/><path fill="#c6c9c9" d="M408 875h1c.3 4.5.3 4.5-1.1 6.8l-1.5 1.7A67 67 0 0 0 397 901l-1.5 3.6A62 62 0 0 0 392 932q3.8-3.6 6.9-7.9c3.5-4.8 7.1-9 13.1-10.1 8.2-.7 15.7-.1 23 4 2.8 2.4 5.2 4.7 7 8v5l22 1 1.2 5.4A49 49 0 0 0 472 953l1 2H344l7-11c4-6.5 4-6.5 4-11q-7.5.7-15 2 4-6.8 8.9-12.9l1.5-2.1 4.6-6 1.4-1.8c2.7-3.4 4.3-4.5 8.5-5.5 3.9-1.3 7-4.1 10.2-6.6q4-2.9 8.3-5.5 13.5-8.2 24.6-19.6"/><path fill="#00a4ad" d="M155 769q-4.1 8.5-8.8 16.6c-9.9 16.8-18.3 34.3-26.8 51.8a269 269 0 0 1-10 18.2A306 306 0 0 0 84.7 908l-2.6 6.8A255 255 0 0 0 70 955h-4c-2.9-15.8-4-31.6-1.9-47.6l.3-3c4.8-34.6 12.3-68.8 33.6-97.4l1.9-2.6c5-6.6 10.8-12 17.1-17.4l2.9-2.6c9.3-7.7 22.6-15.9 35.1-15.4"/><path fill="#0a0a17" d="M225.3 785.3c1.7.7 1.7.7 2.7 2.7-1.3 2.2-1.3 2.2-3.3 4.8-4 5.3-6.3 9.6-6 16.3.8 4.6 4 7 7.8 9.7l5.2 3.5c2.3 1.7 2.3 1.7 3.7 3.8 3.9 4.8 12.2 4.8 18 5.8 5.4.9 5.4.9 7.6 3q1.1.5 2.3.8c3.9 1.9 5.5 4.9 7.8 8.5l1.3 2q3 4.8 5.8 9.8c1.8 3 1.8 3 4 4h1.8l1-2 4 7.8 1.2 2.3 1 2 1 2c.8 1.9.8 1.9.8 4.9l2.5-1c4 0 4.5.5 7.4 3q2.1 2 4 4.3l2.3 2.2a51 51 0 0 1 14.2 29.4c.6 3 .6 3 2.6 5 1.9 0 1.9 0 4-1 1.7-1.8 1.7-1.8 3.4-4.3l1.8-2.7 6.5-10.7c4-6.8 4-6.8 8.3-8.2l2.5 4.8 1.4 2.7c1 2.5 1 2.5 1 6.5-1.5 2.5-1.5 2.5-3.7 5.3l-2.5 3.2-1.3 1.7-7.2 9.6-1.4 1.9c-7.8 10.6-7.8 10.6-7.8 14.3 4.8-.5 8.6-2 12.9-4q3-1.4 6-2a54 54 0 0 1-5.3 10.7l-1.8 2.9C341 953 341 953 338 955c-2.2.3-2.2.3-4.8.3h-3l-3.2-.1h-13.7l-7-.1-17.3-.1.9-2.1a77 77 0 0 0 5.6-31.1v-2.1A94 94 0 0 0 291 889l-.7-2a84 84 0 0 0-33.3-45c-22.1-9.6-45.4-9.7-69-9l1.4-5.8c0-.6 0-.6.7-3.3 1-3.6 2.8-5 5.9-7 .8-2.1.8-2.1 1-4q-4-.3-8-1c3.8-3 3.8-3 6-3l.8-1.7c1.2-2.2 1.2-2.2 3.5-3.4 2.7-1.7 3.6-2.8 5.4-5.4 11-15.1 11-15.1 20.6-13.1"/><path fill="#505050" d="m797 460 3.1 2.2a67 67 0 0 1 21.1 45.6l-.2 9.2c-22.5-9.7-22.5-9.7-29.8-13.4q-6.5-3.2-13.4-5.6l-8.6-3.4-6.2-2.6-3.4-1.4a48 48 0 0 0-21.5-3.6c-4.2 0-6.6-.8-10.1-3-2-3-2-3-2-6l-2.4-.3q-6.5-1.4-12.8-3.6l-2.5-.8-2.4-.8-2.1-.7c-1.8-.8-1.8-.8-3.8-2.8 26.6-28.4 65.5-33.9 97-9"/><path fill="#c6c9c9" d="m147 900 1 2 4.6 1.4c4.8 1.4 9 3.2 13.4 5.6l3.2 1.6a172 172 0 0 1 44.9 30.5c3.8 2.5 6 2.3 10.4 1.7q7.8-1.8 15.4-4.4 10.9-3.3 21.9-5.6a69 69 0 0 0 22.8-10.5c2.5-1.4 4.6-1.9 7.4-2.3.7 22.4.7 22.4-7 32a89 89 0 0 1-8 7l-1.8 1.5A67 67 0 0 1 232 974c-7.9-1.6-15.4-4.8-22.8-7.9l-2.4-.9a54 54 0 0 1-13-7.8 25 25 0 0 0-5.7-3.3c-9.8-4.8-16.7-12.7-24-20.7l-1.6-1.8-3.4-4c-3.3-2.5-6.8-2.5-10.9-2.8l-2.4-.3-5.8-.5 1-1.9a63 63 0 0 0 6-22.1"/><path fill="#27000c" d="m571.9 1083.6 2.6-.1c9 0 15.9 3.2 22.5 9.5l6.8 8.5 6.4 8.6c4.5 6.3 9.3 11.3 15 16.5 8.3 7.6 13.9 13.8 14.5 25.5-.5 10-4.5 16.6-11.8 23.3-8.2 7-18.4 7.4-29 6.6l-7.2-1.5c-14.4-3-29.1-2.4-43.3.9-9 1.8-19 1.6-27.4-2.4a36 36 0 0 1-16-23c-1.3-8 1.5-14.3 6-21 4.2-5 8.9-10 14-14h2l2-4 2.8-3.8 1.7-2.2 1.7-2.2 1.7-2.2c9.8-12.8 17.9-23.1 35-23m-28.2 19.6-1.8 2.3-7 9.3c-4.4 5.9-9.5 11-15 16.2-5 5.2-8.7 9-11 16h2l8.8.4h3c5.4.2 8.9.5 13.3 3.6h4v-2l1-2q4-.9 8-1v2.7l-.1 3.5-.1 3.5c.2 3.3.8 5.4 2.2 8.3 5.8-.8 9.4-3.6 14-7l1.9-1.2c1.7-1.2 1.7-1.2 4-3.8.5-3.8.5-3.8 0-7h9v18c4 1 4 1 6.5 0l7.6-5 2.2-1.4c2.9-2.1 4.6-3.4 5.3-7 0-2.4 0-2.4-.5-6.6h10l-2 4v3c3.4-1.1 5.4-2.2 8-4.5 4.8-3.6 10.3-3.4 16-3.5a20 20 0 0 0-5.6-8.8l-2.2-2.1q-3-2.9-6.1-5.3c-5.1-4.3-9-9.8-13-15.2q-3.5-4.7-7.3-9.3l-3.3-4.3a26 26 0 0 0-14.5-10q-4.5-.6-9.1-.5l-2.3-.1c-12 .2-19.2 7.7-26 16.8"/><path fill="#727283" d="M379.8 441.8h3.3a709 709 0 0 1 51 1.6c15.8 1.2 31.4 3 46.8 6.6.9 21.4-1.4 45-9 65l-2-.5-5.5-.9c-3.1-.7-5-1.5-7.4-3.7q-1.5-6-1.6-12.5c-.4-5.6-2-10.3-4.4-15.4l-1.2-2.7c-8.7-17-22.9-26.2-40.2-32.2a70 70 0 0 0-51.9 6.4 64 64 0 0 0-15.2 12.3c-2.6 2.3-3.2 2.8-6.6 3.1-2.5-.5-2.5-.5-5.6-1.5l-3.6-1.1-3.7-1.4a648 648 0 0 0-44-12c2.3-2.4 3.8-3.3 7.1-4l2.6-.4 2.9-.6q1.5 0 3-.4c14.6-2.4 29.5-3.4 44.3-4.6l4-.1c12.4-1 24.6-1 36.9-1"/><path fill="#0a0a17" d="M878 878c7.2.6 13.2 2.8 19.8 5.5A53 53 0 0 0 914 887a127 127 0 0 1 2.5 29.5v6.1c-.5 2.4-.5 2.4-2.5 4.1l-2 1.3c-.5 2.6-.5 2.6-.5 5.7A26 26 0 0 1 907 948h-2l-4-6c-2.3-1.1-3.6-1.1-6.1-1.1l-3.9.1c-1 3-1 3-2 14h-48l1-3c3.6-1.2 3.6-1.2 7-2-.5-3.9-1.4-5.9-4.1-8.8l-1.8-2-2.1-2.2-4.4-5-3.6-4c3.3-1.7 7-.5 10.6-.1A113 113 0 0 0 861 929a15 15 0 0 0-3.6-7.5l-1.6-1.9-1.7-2c-6.6-8-6.6-8-9.1-12.6l1.8.6c2.5.8 4.6 1.4 7.2 1.4l4-6c6.6.2 12 2.3 18 4.8 4.7 1.9 8.9 2.8 14 3.2l1-1c-.1-7.1-3.6-12.4-7.1-18.4l-3.3-5.9-1.5-2.7c-1.1-2-1.1-2-1.1-3"/><path fill="#070102" d="m389 437 3.4.1c24.2.5 48.4 1.5 72.2 5.5l7.6 1.2 5 .8 2.3.4c5.4.9 5.4.9 6.5 2 .2 46.6-14.4 94.6-33 137l-1.4 3.2a104 104 0 0 1-11 18.1l-1.7 2.3a61 61 0 0 1-38.3 25.6c-18.5 2.7-36.7 1.5-52.6-9.2q-3.6-3.2-7-6.8-2.7-2.9-5.6-5.3-15.8-13.5-28.4-29.9l-1.5-1.9c-26.3-34.7-45-75.4-47.5-119.1l-.2-2.6c-.2-2.4-.2-2.4.2-6.4 3.9-3.1 8.2-3.9 13-4.7l2.3-.5 7.6-1.3 2.7-.5c34.6-6 70.3-8.9 105.4-8m-96 11-2.4.4c-23.8 3.8-23.8 3.8-27.6 7.6q-.1 6.1.5 12.2l.3 6c1 13.8 5 26 10.3 38.7l1.4 3.5a241 241 0 0 0 47.9 77.2C337 609 337 609 344.8 613.1c3.2 1.9 3.2 1.9 5.1 4.3 6.5 8 16.1 11.2 26.1 12.6a68 68 0 0 0 32-3l3-1.2c7.5-3.5 13.1-8 19-13.8l2.1-1.8c20-17.6 27-54.5 34.9-79.2l1.6-4.9c7.9-24.8 13.3-50 12.4-76.1-58.4-15-128.9-11.8-188-2m463.9-11c37-.9 74.7 2.6 111 9.4l6.2 1.1 3 .4 2.6.4c2.7.8 4.3 1.8 6.3 3.7.9 4.2.3 8.7 0 13l-.1 2.6a116 116 0 0 1-8 39c-10.8 29.1-24.2 58.7-46 81.4l-3.2 3.8a255 255 0 0 1-27 27.2c-15 13.2-31.3 16-50.7 15a56 56 0 0 1-34-14l-1.6-1.3a50 50 0 0 1-11-12.5l-1.3-2-4.1-6.2-1.5-2.4q-5.8-9.2-9.6-19.4l-1.4-3.4A502 502 0 0 1 664 499l-.5-2a182 182 0 0 1-4.5-50c8.7-8.7 39.5-7 51-8l2.3-.2 12.7-.8 3-.2zm-43.3 6.3-2.8.2q-24 1.5-47.8 6.5a314 314 0 0 0 9 61l.9 3.3a369 369 0 0 0 8.9 29.4l.8 2.4q5.9 18.1 13.4 36 .6 1.1 1 2.5 2 4.1 3.6 8.2l1 2.5a47 47 0 0 0 13.4 17.2c4 3.4 4 3.4 5.7 5.1 12.2 11.1 27.3 13.2 43.2 12.7a49 49 0 0 0 31-12.3l.6-2.2.5-1.8q1 0 2-.4c4.6-1 7-4 10.4-7.2l1.9-1.9 5.7-5.5 1.9-1.9a209 209 0 0 0 41-58v-2h2q1.8-3.2 3-6.5l1-2a765 765 0 0 0 9.7-24.5 95 95 0 0 0 6.5-29.7l.3-3.3c.9-11.7.9-11.7.6-16-2.8-3-6.1-3-10-3.7l-2.4-.5-8.1-1.4-2.8-.4a507 507 0 0 0-53.7-6l-3.7-.4q-18-1.2-36-1H762q-24.3 0-48.4 1.6"/><path fill="#32324b" d="M556.3 1006.6c7.2 6.2 9.3 14.5 10 23.7v13.8c0 11.2-.8 21.2-9 29.6a26 26 0 0 1-20.3 7.7c-6.6-.9-11.5-5-15.6-10.3a41 41 0 0 1-5.7-32.4 55 55 0 0 1 25.4-32.3c5.4-2.3 9.9-2.4 15.1.2m46.6-.2c12 6.5 21 17.7 25.2 30.6a38 38 0 0 1-2.3 29.4c-3.8 6-8.8 12.2-15.7 14.6a26 26 0 0 1-19.8-4.2 35 35 0 0 1-12-23.6q-.5-8 0-16v-3.7c.3-9 1.4-17.4 7.3-24.6 5.6-4.3 10.6-5.5 17.3-2.5M652 1059a33 33 0 0 1 13.5 19.2 53 53 0 0 1-3.8 34.1A44 44 0 0 1 641 1126c-6.5.8-11.6-.2-17-4-4.4-4-6.6-8.4-7.3-14.3A57 57 0 0 1 629 1070c6.2-6.7 13.3-13.4 23-11m-154.2-.5c10.7 2.5 16.6 9.4 22.4 18.2a53 53 0 0 1 6.2 38c-2.2 5.3-6.4 7.9-11.4 10.3-6 2-11.2 1.7-17-1-8.8-5-15.5-9.4-18.4-19.5l-.6-2.5-.7-3c-1-12-.4-24.3 7.7-34l1.3-1.7c3-3.6 5.5-5.2 10.5-4.8"/><path fill="#070102" d="M792 190c10.5.5 20.7 3.2 28 11l5.9 4.6A145 145 0 0 1 854 231l2.1 2.7c14 18.2 23 37.2 29.7 59l1.6 5.4 3.9 12.7 1.9 6a236 236 0 0 1 5 18.3c6 24.2 12.2 48.3 25.5 69.7a64 64 0 0 1 4.3 8.2l-1 3c-3.9-.5-5.3-2.1-7.7-5.1-4-4.7-8.3-8.3-13.3-11.9l-5-4-1.9-1.5c-3-3.5-4.6-7.4-6.5-11.7l-1.2-2.7q-4.8-11.3-8.7-23l-3.9-10.6q-4.4-11-7.1-22.5c-1.6-7-4-13.4-6.8-20l-1.4-3.5a234 234 0 0 0-23.4-44.9l-4.7-7.4a78 78 0 0 0-9.8-12.3q-4.6-5.3-8.7-11-7.8-10.3-16.9-19.5c-3.4-3.6-6.6-7-9-11.4zm9 8a126 126 0 0 0 10.2 12.7 154 154 0 0 1 10.9 13.3q3.9 5 8 9.7c6.2 7 11 14.5 15.8 22.5l4.7 7.1c13.2 20.8 21.3 45.3 28.1 68.8q4.5 15.1 10.5 29.8l3.4 9.2c3.8 9.8 9 20.4 18.2 26.2l2.4 1.6 1.8 1.1q-1.6-5.4-3.9-10.4c-7.2-16.8-12.1-34-16.7-51.7C880.1 283 863.7 237.3 815 204l-2.5-1.7A22 22 0 0 0 801 198"/><path fill="#32324b" d="M142 856c0 3.4-1.1 4.9-2.9 7.8-5.8 9.1-5.8 9.1-4.8 14l.5 2.1c.4 4.5-2.5 8.4-4.8 12.1l-1.5 2.6-3.1 5A52 52 0 0 0 119 914c6.6 0 10.2-3 15.3-7q4.1-2.9 8.7-5a36 36 0 0 1-6.4 19 21 21 0 0 0-2.6 8c-1.7 9.3-5.3 20-13 26a73 73 0 0 1-29 0c-.5-24.3 11-50.5 25-70l1.3-1.8q10.4-14.8 23.7-27.2"/><path fill="#0a0a17" d="m339 221 2 1-2.5 2.7q-9 9.5-17.4 19.7l-4.3 5.2A203 203 0 0 0 281 312l-1.1 3a359 359 0 0 0-10.8 33.8A201 201 0 0 1 234 423c-2.4-6 1.7-13.3 4-19l3.8-7.9a288 288 0 0 0 11-27l.9-2.5q7.2-20.2 12.1-41.2c3.5-14.4 7.1-28.3 14.2-41.4l1.7-3.2c7.3-12.3 17.9-22.7 27.7-33q3.3-3.3 6.2-6.8a97 97 0 0 1 15.9-14.8l2.1-1.6zm675 427c9.2-.8 19.2.8 27 6a108 108 0 0 0 10.3.4c2.1 0 2.1 0 5.7-.4l2-3c4.2-1.3 7.8-1.4 12 0 3.3 4.4 4.8 9.4 6.4 14.6a185 185 0 0 1 4.9 14.3l2.2 6.4.7 2 2 5.7c.8 3 .8 3-.2 6l-2.1-2.3c-11-11.8-28.8-25.8-45.5-26.9h-5.2c-2.2.2-2.2.2-4.2 2.2l-1 6q-3-4-5.7-8l-1.3-2c-1-2-1-2-1-6h-2l-.6-1.9-.8-2.4-.7-2.4c-.9-2.3-.9-2.3-2.9-5.3z"/><path fill="#070102" d="m571.9 1083.6 2.6-.1c9 0 15.9 3.2 22.5 9.5l6.8 8.5 6.4 8.6c4.5 6.3 9.3 11.3 15 16.5 8.3 7.6 13.9 13.8 14.5 25.5-.5 10-4.5 16.6-11.8 23.3-8.2 7-18.4 7.4-29 6.6l-7.2-1.5c-14.4-3-29.1-2.4-43.3.9-9 1.8-19 1.6-27.4-2.4a36 36 0 0 1-16-23c-1.3-8 1.5-14.3 6-21 4.2-5 8.9-10 14-14h2l2-4 2.8-3.8 1.7-2.2 1.7-2.2 1.7-2.2c9.8-12.8 17.9-23.1 35-23m-28.2 19.6-1.8 2.3-7 9.3c-4.4 5.9-9.5 11-15 16.2-6.3 6.4-11.1 11.3-11.3 20.7 0 7.4 2.4 12.8 7.2 18.4 7.8 7.5 15.7 8.4 26.2 8.2q6-.5 11.7-1.8c13.7-3 26.9-2 40.5.9 10 1.8 21.2 2.2 30-3.8A31 31 0 0 0 636 1156c.7-8.3-1.6-14.4-7-20.8q-4-4.3-8.2-8c-5-4.3-9.1-8.6-12.8-14-16.4-24-16.4-24-27-26.2q-4.5-.5-9.1-.5l-2.3-.1c-12 .3-19.2 7.7-26 16.8M519 762c3.9.6 6.4 2.5 9.5 4.8l2.8 2.1c2.7 2.1 2.7 2.1 4.5 4 3.4 3.3 7.4 5.8 11.3 8.4l5.2 3.5 2.4 1.7 10.5 7.2c4.7 3.3 4.7 3.3 7.5 3.2 4.3-1.2 7.2-3.3 10.8-5.8l2.1-1.5 4.3-3.1 6-4.2q8.5-5.8 16.2-12.7l6.7-5.2 2.1-1.5c2.1-.9 2.1-.9 4.4-.1l1.7 1.2c-1.5 4.6-4 7.7-7.2 11.1l-1.7 1.7c-10.6 11.1-30.5 30.1-45.9 31.6-4.4-.2-7.1-1.7-10.8-4.2l-1.8-1.2-5.6-4-1.9-1.4A188 188 0 0 1 529 779l-2.8-2.6-2.2-2.4-1.7-1.7q-2.4-2.4-4.3-5.3c.1-2.9.1-2.9 1-5"/><path fill="#0a0a17" d="M141.2 927.8c5.8-.2 10 .7 14.8 4.2l6 6.7q4.6 5.1 10 9.3l7 6v1c-19.4 1.2-38.5.9-58 0l1.6-3.1 1-2 2.2-4.4 4.7-9.7 1.2-2.7 1-2.3c1.3-1.8 1.3-1.8 3.7-2.5z"/><path fill="#fefefe" d="M548 1112a41 41 0 0 1 22 12c3.6 7.3 2.4 20.2 1 28-2.3 4.7-6.4 6.9-11 9l-3.1 1.8c-3.2 1.3-3.8 1.2-6.9.2-1.2-17-2.4-33.9-2-51m30 0c8.4.2 16.1 6.5 22 12 3.6 7.3 2.4 20.2 1 28-2.3 4.7-6.4 6.9-11 9l-3.1 1.8c-3.2 1.3-3.8 1.2-6.9.2l-.1-2.7-.2-10.3-.1-4.3q-.1-12.6-2.2-25-.6-3.8-.4-7.7z"/><path fill="#32324b" d="M159 338v2.7c.4 9.3 1.7 17.6 8.8 24.2A41 41 0 0 0 180 370q-.8 4.7-2.5 9.3A50 50 0 0 0 175 392a17 17 0 0 1-7.6-6.1c-3.2-3.8-3.2-3.8-5.4-4.9a58 58 0 0 0-15 1l1-2c0-4.8-.5-9.4-2.6-13.7A18 18 0 0 1 144 356c2.1-4.2 9.4-18 15-18"/><path fill="#070102" d="M556.3 1006.6c7.2 6.2 9.3 14.5 10 23.7v13.8c0 11.2-.8 21.2-9 29.6a26 26 0 0 1-20.3 7.7c-6.6-.9-11.5-5-15.6-10.3a41 41 0 0 1-5.7-32.4 55 55 0 0 1 25.4-32.3c5.4-2.3 9.9-2.4 15.1.2m-31.7 20.7c-5 9.3-8.9 20.2-5.7 30.6a36 36 0 0 0 13 18.3 25 25 0 0 0 16.5 0 28 28 0 0 0 13-16.4c1.3-5.7 1-11.3 1-17v-3.8c0-9.6-1-19.7-6.5-27.8-3.4-2.6-5.2-3.2-9.4-2.9-9.1 2.5-17 11.1-22 19m78.4-20.9c12 6.5 21 17.7 25.2 30.6a38 38 0 0 1-2.3 29.4c-3.8 6-8.8 12.2-15.7 14.6a26 26 0 0 1-19.8-4.2 35 35 0 0 1-12-23.6q-.5-8 0-16v-3.7c.3-9 1.4-17.4 7.3-24.6 5.6-4.3 10.6-5.5 17.3-2.5M587 1014a70 70 0 0 0-3 49 28 28 0 0 0 11.6 13.2q9.1 3 17.8-.8c7.7-7.2 12.7-14.3 13.1-25.2-.5-14-6.5-25-16.4-34.4-4.4-3.8-8.4-7-14.3-7.5-4.7.8-5.8 2.1-8.8 5.7m65 45a33 33 0 0 1 13.5 19.2 53 53 0 0 1-3.8 34.1A44 44 0 0 1 641 1126c-6.5.8-11.6-.2-17-4-4.4-4-6.6-8.4-7.3-14.3A57 57 0 0 1 629 1070c6.2-6.7 13.3-13.4 23-11m-13 6.6a50 50 0 0 0-17.8 28.1c-.8 8.1-1.6 16.1 2.8 23.3 4.7 4.4 8.8 5.5 15.1 5.5a35 35 0 0 0 19.8-12.4 54 54 0 0 0 2.4-33.4 32 32 0 0 0-10.2-14.2c-4.4-1-8.2 1-12.1 3.1m-141.2-7.1c10.7 2.5 16.6 9.4 22.4 18.2a53 53 0 0 1 6.2 38c-2.2 5.3-6.4 7.9-11.4 10.3-6 2-11.2 1.7-17-1-8.8-5-15.5-9.4-18.4-19.5l-.6-2.5-.7-3c-1-12-.4-24.3 7.7-34l1.3-1.7c3-3.6 5.5-5.2 10.5-4.8M486 1071a47 47 0 0 0-2 35.6c2.7 6.7 10 10.7 16 14.4a22 22 0 0 0 15.3-.2c4.3-3 7.2-5.3 8.5-10.5A56 56 0 0 0 511 1070c-4.6-4.4-9.2-7.6-15.8-7.5-4.6 1-6.8 4.7-9.2 8.5"/><path fill="#0a0a17" d="M938.7 818.4c3-.5 4.5-.6 7.3.6 3 4.2 4.8 8.8 6.8 13.5q4 8.2 8.8 16l1.3 2.4 1.3 2.2c.8 1.9.8 1.9-.2 4.9l-1-1.6c-5.2-7.1-12-15.2-21-17-3.3 0-6 0-9 1.6-8.5-13.6-8.5-13.6-12-20a42 42 0 0 1 11.8-1.7c3.2-.3 3.2-.3 6-1"/><path fill="#fefefe" d="M739 461.7h2.6c2.6.3 4.2.9 6.4 2.3.8 2.6.8 2.6 1 5h2c1.3 5.7.9 8.9-2 14-2.2 2.5-3.7 3.8-7.1 4.4-5.3.2-9.2-.8-13.9-3.4-2.5-3.7-2.6-6.7-2-11 2.3-6.7 5.4-11.5 13-11.3m-329 .3c3.4 1.7 5.4 4 7.4 7.2q1.5 6.3.6 12.8a15 15 0 0 1-10.1 5.2c-5.5.2-8.6-.4-12.9-4.2-2-3.1-2.2-5.6-2.1-9.2V471l.1-2h2l.9-2.4c2.5-6 8.5-5.5 14.1-4.6"/><path fill="#0a0a17" d="M918 849c14.9 5.9 14.9 5.9 17.1 10.3q.7 3.3.9 6.7l1 3 .1 5v14.6q-.2 3.3-1.1 6.4h-2q-2.5-5-4.8-10.1c-2.6-5.6-2.6-5.6-5.9-7.4-2.3-.5-2.3-.5-3.3-.5l-.1-2.2-.3-10.1-.2-3.5-.1-3.4-.1-3.2c-.2-2.6-.2-2.6-1.2-5.6"/><path fill="#26263b" d="M935 839c4.1-.9 7.9-1.1 11.8 1a71 71 0 0 1 14.9 13.7c2.3 3.3 2.3 3.3 5.3 5.3v3l2 1c-2.8-.4-4.6-.7-6.9-2.5-2.1-1.5-2.1-1.5-5.5-1.9-3.6-.6-3.6-.6-6.2-2.7-2.4-1.9-2.4-1.9-5.6-1.8l-2.8.9-1 2-1.2-3.1a69 69 0 0 0-4-7.6c-1.8-3.3-1.8-3.3-1.4-5.5z"/><path fill="#edecee" d="M540 1122c1.6 4.5 0 7.3-1.8 11.5a52 52 0 0 1-5.2 8.5l1.8.7c2.8 1.7 3.8 3.4 5.2 6.3v2c-5.2-.3-8.4-1.5-12.7-4.4-1.3-1.6-1.3-1.6-1.8-4.4.6-4.1 2.1-6 4.7-9.3l2.3-3a140 140 0 0 1 7.5-7.9m65 1c3.7 1.3 6.5 2.9 9.6 5.4l2.3 1.7c2.1 1.9 3.6 3.6 5.1 5.9.2 3-.6 4.5-2.5 6.8-3.2 3.4-5.9 6-10.5 7.2.4-3.5 1.1-5.1 3.2-8.1l1.8-2.9c-1.4-4.1-4.6-6.9-7.5-10-1.5-2-1.5-2-1.5-6"/><path fill="#32324b" d="M585 1125c6 3 6 3 7 4l.4 9.3.1 2.6c.1 6.5.1 6.5-2.9 9.7-2.6 1.4-2.6 1.4-4.6 1.4z"/><path fill="#171728" d="M787 41h1c1.1 11.3 1.1 11.3-1.5 15.3l-3.9 3.8c-2.4 2.8-2.4 5.5-2.5 9.1C780 71 780 71 779 72l.4 5.9q.8 8.6.6 17.1c-6.2-9.9-3.8-27.3-1.2-38.2l.4-2.1c1.4-5.5 3.8-9.7 7.8-13.7"/><path fill="#32324b" d="M555 1125c6 3 6 3 7 4q.5 4.7.4 9.3l.2 2.6v2.6l.1 2.3c-.7 2.2-.7 2.2-6.7 6.2zM295 941l1.6 2.2c3.4 4 7.1 6.9 11.4 9.8v2h-19l4.1-9.8 1.1-2.4z"/><path fill="#171728" d="m941 689 5 1-3 1 .4 3.1c-.5 4.6-1.5 5.8-4.7 8.8-1.7 1.1-1.7 1.1-5.7 1.1l-.2 3.4-.8 3.6c-2.1.9-2.1.9-4 1l2-5 .8-2.1c1.8-2.8 4.3-4.2 7.2-5.9h2l-.1-3.3c.1-3.7.1-3.7 1.1-6.7"/><path fill="#26263b" d="m787 39 2 1-2.2 1.8c-8.9 8.9-9.1 25.6-9.8 37.2h-1c-1.2-27.1-1.2-27.1 6.6-36l3.4-3z"/></svg>